<svg width="183" height="107" viewBox="0 0 183 107" fill="none" xmlns="http://www.w3.org/2000/svg">
<path d="M0 64.9618H5.27883V17.3514H0V0H48.4599C57.5395 0 64.4724 1.86916 69.2585 5.60745C74.0447 9.34575 76.4377 15.4117 76.4377 23.8052C76.4377 28.531 75.4876 32.622 73.5872 36.0781C71.6868 39.5343 68.977 41.9324 65.4577 43.2726L65.5633 44.3306C72.3202 45.3886 75.6987 49.5501 75.6987 56.8151V64.9618H80.6608V82.3131H47.1929V57.4499C47.1929 54.6991 46.7706 52.6183 45.926 51.2076C45.1518 49.797 43.8849 48.8448 42.1253 48.351C40.436 47.8573 38.0078 47.6104 34.8404 47.6104V64.9618H41.8085V82.3131H0V64.9618ZM40.5416 34.7027C42.5828 34.7027 44.096 34.1737 45.0814 33.1157C46.1372 31.9872 46.6651 30.2591 46.6651 27.9314V24.1226C46.6651 21.795 46.1372 20.1022 45.0814 19.0442C44.096 17.9156 42.5828 17.3514 40.5416 17.3514H34.8404V34.7027H40.5416ZM102.339 64.9618H107.618V17.3514H102.339V0H150.799C159.879 0 166.812 1.86916 171.598 5.60745C176.384 9.34575 178.777 15.4117 178.777 23.8052C178.777 28.531 177.827 32.622 175.926 36.0781C174.026 39.5343 171.316 41.9324 167.797 43.2726L167.902 44.3306C174.659 45.3886 178.038 49.5501 178.038 56.8151V64.9618H183V82.3131H149.532V57.4499C149.532 54.6991 149.11 52.6183 148.265 51.2076C147.491 49.797 146.224 48.8448 144.464 48.351C142.775 47.8573 140.347 47.6104 137.18 47.6104V64.9618H144.148V82.3131H102.339V64.9618ZM142.881 34.7027C144.922 34.7027 146.435 34.1737 147.421 33.1157C148.476 31.9872 149.004 30.2591 149.004 27.9314V24.1226C149.004 21.795 148.476 20.1022 147.421 19.0442C146.435 17.9156 144.922 17.3514 142.881 17.3514H137.18V34.7027H142.881Z" fill="#1F1F1F"/>
<path d="M44.3729 104V102.36H44.8729V97.86H44.3729V96.22H50.3529V98.81H48.5829V97.86H47.6729V99.52H49.1829V100.66H47.6729V102.36H48.9829V104H44.3729ZM57.2512 102.36V104H54.5112V103.22C54.0312 103.833 53.4312 104.14 52.7112 104.14C52.1579 104.14 51.7412 103.967 51.4612 103.62C51.1879 103.273 51.0512 102.797 51.0512 102.19V100.08H50.6112V98.44H53.3512V101.72C53.3512 101.94 53.3979 102.103 53.4912 102.21C53.5912 102.31 53.7379 102.36 53.9312 102.36C54.1245 102.36 54.2679 102.31 54.3612 102.21C54.4612 102.103 54.5112 101.94 54.5112 101.72V100.08H53.9712V98.44H56.8112V102.36H57.2512ZM64.1667 102.36V104H61.0067V102.36H61.4267V100.72C61.4267 100.5 61.38 100.34 61.2867 100.24C61.1933 100.133 61.0533 100.08 60.8667 100.08C60.4667 100.08 60.2667 100.293 60.2667 100.72V102.36H60.6867V104H57.5267V102.36H57.9667V100.08H57.5267V98.44H60.2667V99.22C60.7467 98.6067 61.3467 98.3 62.0667 98.3C62.62 98.3 63.0333 98.4733 63.3067 98.82C63.5867 99.1667 63.7267 99.6433 63.7267 100.25V102.36H64.1667ZM64.9696 97.89V96.22H67.0096V97.89H64.9696ZM64.4896 104V102.36H64.9296V100.08H64.4896V98.44H67.2296V102.36H67.6696V104H64.4896ZM67.9466 104.01V102.36H68.3866V97.86H67.9466V96.22H70.6866V102.36H71.1266V104.01H67.9466ZM77.2727 102.36V104H74.6327V103.32C74.486 103.533 74.2794 103.723 74.0127 103.89C73.7527 104.057 73.4327 104.14 73.0527 104.14C72.5527 104.14 72.1594 104.007 71.8727 103.74C71.586 103.473 71.4427 103.097 71.4427 102.61C71.4427 101.35 72.5127 100.703 74.6527 100.67C74.6327 100.443 74.546 100.29 74.3927 100.21C74.2394 100.123 73.9794 100.08 73.6127 100.08C73.3127 100.08 72.9894 100.113 72.6427 100.18C72.3027 100.24 71.9894 100.323 71.7027 100.43V98.59C72.056 98.5033 72.4394 98.4333 72.8527 98.38C73.266 98.3267 73.6694 98.3 74.0627 98.3C75.056 98.3 75.766 98.48 76.1927 98.84C76.6194 99.2 76.8327 99.7567 76.8327 100.51V102.36H77.2727ZM74.6327 101.66C74.3327 101.66 74.0994 101.7 73.9327 101.78C73.7727 101.86 73.6927 101.993 73.6927 102.18C73.6927 102.293 73.726 102.387 73.7927 102.46C73.866 102.527 73.966 102.56 74.0927 102.56C74.266 102.56 74.3994 102.487 74.4927 102.34C74.586 102.193 74.6327 101.987 74.6327 101.72V101.66ZM81.865 98.3C81.9984 98.3 82.125 98.3133 82.245 98.34C82.365 98.3667 82.465 98.4 82.545 98.44V100.35C82.2717 100.237 81.9784 100.18 81.665 100.18C81.245 100.18 80.9217 100.29 80.695 100.51C80.4684 100.73 80.355 101.057 80.355 101.49V102.36H81.255V104H77.615V102.36H78.055V100.08H77.615V98.44H80.355V99.17C80.5417 98.89 80.755 98.6767 80.995 98.53C81.235 98.3767 81.525 98.3 81.865 98.3ZM83.3485 97.89V96.22H85.3885V97.89H83.3485ZM82.8685 104V102.36H83.3085V100.08H82.8685V98.44H85.6085V102.36H86.0485V104H82.8685ZM92.1555 102.36V104H89.5155V103.32C89.3688 103.533 89.1622 103.723 88.8955 103.89C88.6355 104.057 88.3155 104.14 87.9355 104.14C87.4355 104.14 87.0422 104.007 86.7555 103.74C86.4688 103.473 86.3255 103.097 86.3255 102.61C86.3255 101.35 87.3955 100.703 89.5355 100.67C89.5155 100.443 89.4288 100.29 89.2755 100.21C89.1222 100.123 88.8622 100.08 88.4955 100.08C88.1955 100.08 87.8722 100.113 87.5255 100.18C87.1855 100.24 86.8722 100.323 86.5855 100.43V98.59C86.9388 98.5033 87.3222 98.4333 87.7355 98.38C88.1488 98.3267 88.5522 98.3 88.9455 98.3C89.9388 98.3 90.6488 98.48 91.0755 98.84C91.5022 99.2 91.7155 99.7567 91.7155 100.51V102.36H92.1555ZM89.5155 101.66C89.2155 101.66 88.9822 101.7 88.8155 101.78C88.6555 101.86 88.5755 101.993 88.5755 102.18C88.5755 102.293 88.6088 102.387 88.6755 102.46C88.7488 102.527 88.8488 102.56 88.9755 102.56C89.1488 102.56 89.2822 102.487 89.3755 102.34C89.4688 102.193 89.5155 101.987 89.5155 101.72V101.66ZM98.4559 104.14C97.5092 104.14 96.7692 103.893 96.2359 103.4C95.7026 102.9 95.4359 102.173 95.4359 101.22C95.4359 100.267 95.7026 99.5433 96.2359 99.05C96.7692 98.55 97.5092 98.3 98.4559 98.3C99.3959 98.3 100.073 98.5467 100.486 99.04C100.906 99.5267 101.116 100.133 101.116 100.86V101.58H97.8759V101.64C97.8759 101.887 97.9492 102.07 98.0959 102.19C98.2426 102.303 98.4859 102.36 98.8259 102.36C99.2326 102.36 99.6192 102.33 99.9859 102.27C100.353 102.21 100.673 102.133 100.946 102.04V103.64C100.713 103.767 100.369 103.883 99.9159 103.99C99.4692 104.09 98.9826 104.14 98.4559 104.14ZM99.0359 100.48V100.36C99.0359 100.133 98.9859 99.97 98.8859 99.87C98.7926 99.77 98.6492 99.72 98.4559 99.72C98.2626 99.72 98.1159 99.7733 98.0159 99.88C97.9226 99.98 97.8759 100.14 97.8759 100.36V100.48H99.0359ZM104.431 102.36H104.931V97.86H104.431V96.22H108.821C109.681 96.22 110.338 96.4067 110.791 96.78C111.245 97.1467 111.471 97.7433 111.471 98.57C111.471 99.3967 111.245 99.9967 110.791 100.37C110.338 100.737 109.681 100.92 108.821 100.92H107.731V102.36H108.691V104H104.431V102.36ZM108.071 99.5C108.458 99.5 108.651 99.2867 108.651 98.86V98.5C108.651 98.28 108.601 98.12 108.501 98.02C108.408 97.9133 108.265 97.86 108.071 97.86H107.731V99.5H108.071ZM112.274 97.89V96.22H114.314V97.89H112.274ZM111.794 104V102.36H112.234V100.08H111.794V98.44H114.534V102.36H114.974V104H111.794ZM121.891 102.36V104H118.731V102.36H119.151V100.72C119.151 100.5 119.105 100.34 119.011 100.24C118.918 100.133 118.778 100.08 118.591 100.08C118.191 100.08 117.991 100.293 117.991 100.72V102.36H118.411V104H115.251V102.36H115.691V100.08H115.251V98.44H117.991V99.22C118.471 98.6067 119.071 98.3 119.791 98.3C120.345 98.3 120.758 98.4733 121.031 98.82C121.311 99.1667 121.451 99.6433 121.451 100.25V102.36H121.891ZM124.684 104.14C123.978 104.14 123.444 103.97 123.084 103.63C122.731 103.283 122.554 102.703 122.554 101.89V100.08H122.114V98.44C122.368 98.44 122.558 98.3767 122.684 98.25C122.811 98.1167 122.874 97.9367 122.874 97.71V97.26H124.994V98.44H126.344V100.08H124.994V101.72C124.994 101.94 125.041 102.103 125.134 102.21C125.234 102.31 125.381 102.36 125.574 102.36C125.828 102.36 126.104 102.33 126.404 102.27V103.84C126.218 103.913 125.964 103.98 125.644 104.04C125.331 104.107 125.011 104.14 124.684 104.14ZM133.306 102.36V104H130.566V103.22C130.086 103.833 129.486 104.14 128.766 104.14C128.213 104.14 127.796 103.967 127.516 103.62C127.243 103.273 127.106 102.797 127.106 102.19V100.08H126.666V98.44H129.406V101.72C129.406 101.94 129.453 102.103 129.546 102.21C129.646 102.31 129.793 102.36 129.986 102.36C130.179 102.36 130.323 102.31 130.416 102.21C130.516 102.103 130.566 101.94 130.566 101.72V100.08H130.026V98.44H132.866V102.36H133.306ZM137.851 98.3C137.985 98.3 138.111 98.3133 138.231 98.34C138.351 98.3667 138.451 98.4 138.531 98.44V100.35C138.258 100.237 137.965 100.18 137.651 100.18C137.231 100.18 136.908 100.29 136.681 100.51C136.455 100.73 136.341 101.057 136.341 101.49V102.36H137.241V104H133.601V102.36H134.041V100.08H133.601V98.44H136.341V99.17C136.528 98.89 136.741 98.6767 136.981 98.53C137.221 98.3767 137.511 98.3 137.851 98.3ZM144.685 102.36V104H142.045V103.32C141.898 103.533 141.691 103.723 141.425 103.89C141.165 104.057 140.845 104.14 140.465 104.14C139.965 104.14 139.571 104.007 139.285 103.74C138.998 103.473 138.855 103.097 138.855 102.61C138.855 101.35 139.925 100.703 142.065 100.67C142.045 100.443 141.958 100.29 141.805 100.21C141.651 100.123 141.391 100.08 141.025 100.08C140.725 100.08 140.401 100.113 140.055 100.18C139.715 100.24 139.401 100.323 139.115 100.43V98.59C139.468 98.5033 139.851 98.4333 140.265 98.38C140.678 98.3267 141.081 98.3 141.475 98.3C142.468 98.3 143.178 98.48 143.605 98.84C144.031 99.2 144.245 99.7567 144.245 100.51V102.36H144.685ZM142.045 101.66C141.745 101.66 141.511 101.7 141.345 101.78C141.185 101.86 141.105 101.993 141.105 102.18C141.105 102.293 141.138 102.387 141.205 102.46C141.278 102.527 141.378 102.56 141.505 102.56C141.678 102.56 141.811 102.487 141.905 102.34C141.998 102.193 142.045 101.987 142.045 101.72V101.66Z" fill="#1F1F1F"/>
<path d="M0 91H183" stroke="#1F1F1F" stroke-width="4"/>
<mask id="path-4-outside-1_163_22" maskUnits="userSpaceOnUse" x="54" y="0" width="84" height="84" fill="black">
<rect fill="white" x="54" width="84" height="84"/>
<path d="M89.0617 82.407C78.2747 82.407 69.9667 80.4305 64.1377 76.4775C58.3757 72.4575 55.4947 66.93 55.4947 59.895C55.4947 55.205 56.9017 51.1515 59.7157 47.7345C62.5297 44.2505 66.0472 41.6375 70.2682 39.8955C66.5162 37.2155 63.7022 34.4685 61.8262 31.6545C59.9502 28.8405 59.0122 25.5575 59.0122 21.8055C59.0122 17.5175 60.3857 13.8325 63.1327 10.7505C65.8797 7.66849 69.6652 5.357 74.4892 3.816C79.3802 2.208 84.9412 1.40399 91.1722 1.40399C97.4702 1.40399 103.232 2.17449 108.458 3.71549C113.684 5.25649 117.57 6.96499 120.116 8.84099V28.137H99.0112V26.328C99.0112 23.916 98.4417 22.1405 97.3027 21.0015C96.1637 19.8625 94.4552 19.293 92.1772 19.293C87.9562 19.293 85.8457 20.9345 85.8457 24.2175C85.8457 25.4905 86.3482 26.6965 87.3532 27.8355C88.4252 28.9745 90.1002 30.415 92.3782 32.157L108.76 44.5185C109.028 43.1115 109.162 41.5035 109.162 39.6945V37.8855H133.382V54.669H127.553L126.649 57.9855L135.694 64.8195L123.433 81L116.096 75.372C109.396 80.062 100.385 82.407 89.0617 82.407ZM91.6747 64.518C94.9577 64.518 97.6377 63.915 99.7147 62.709L86.9512 52.86C85.6782 53.463 84.6732 54.3005 83.9362 55.3725C83.1992 56.3775 82.8307 57.5165 82.8307 58.7895C82.8307 60.7995 83.5677 62.2735 85.0417 63.2115C86.5827 64.0825 88.7937 64.518 91.6747 64.518Z"/>
</mask>
<path d="M89.0617 82.407C78.2747 82.407 69.9667 80.4305 64.1377 76.4775C58.3757 72.4575 55.4947 66.93 55.4947 59.895C55.4947 55.205 56.9017 51.1515 59.7157 47.7345C62.5297 44.2505 66.0472 41.6375 70.2682 39.8955C66.5162 37.2155 63.7022 34.4685 61.8262 31.6545C59.9502 28.8405 59.0122 25.5575 59.0122 21.8055C59.0122 17.5175 60.3857 13.8325 63.1327 10.7505C65.8797 7.66849 69.6652 5.357 74.4892 3.816C79.3802 2.208 84.9412 1.40399 91.1722 1.40399C97.4702 1.40399 103.232 2.17449 108.458 3.71549C113.684 5.25649 117.57 6.96499 120.116 8.84099V28.137H99.0112V26.328C99.0112 23.916 98.4417 22.1405 97.3027 21.0015C96.1637 19.8625 94.4552 19.293 92.1772 19.293C87.9562 19.293 85.8457 20.9345 85.8457 24.2175C85.8457 25.4905 86.3482 26.6965 87.3532 27.8355C88.4252 28.9745 90.1002 30.415 92.3782 32.157L108.76 44.5185C109.028 43.1115 109.162 41.5035 109.162 39.6945V37.8855H133.382V54.669H127.553L126.649 57.9855L135.694 64.8195L123.433 81L116.096 75.372C109.396 80.062 100.385 82.407 89.0617 82.407ZM91.6747 64.518C94.9577 64.518 97.6377 63.915 99.7147 62.709L86.9512 52.86C85.6782 53.463 84.6732 54.3005 83.9362 55.3725C83.1992 56.3775 82.8307 57.5165 82.8307 58.7895C82.8307 60.7995 83.5677 62.2735 85.0417 63.2115C86.5827 64.0825 88.7937 64.518 91.6747 64.518Z" fill="white"/>
<path d="M64.1377 76.4775L63.4511 77.4617L63.4576 77.4662L63.4642 77.4707L64.1377 76.4775ZM59.7157 47.7345L60.6421 48.4974L60.6492 48.4885L59.7157 47.7345ZM70.2682 39.8955L70.726 41.0047L72.7286 40.1783L70.9657 38.919L70.2682 39.8955ZM61.8262 31.6545L60.8278 32.3201L60.8278 32.3201L61.8262 31.6545ZM63.1327 10.7505L64.0285 11.5489L64.0285 11.5489L63.1327 10.7505ZM74.4892 3.816L74.8544 4.95913L74.864 4.95597L74.4892 3.816ZM120.116 8.84099H121.316V8.23463L120.828 7.87493L120.116 8.84099ZM120.116 28.137V29.337H121.316V28.137H120.116ZM99.0112 28.137H97.8112V29.337H99.0112V28.137ZM97.3027 21.0015L96.4542 21.85L96.4542 21.85L97.3027 21.0015ZM87.3532 27.8355L86.4534 28.6294L86.4662 28.6439L86.4794 28.6579L87.3532 27.8355ZM92.3782 32.157L91.6493 33.1102L91.6554 33.1149L92.3782 32.157ZM108.76 44.5185L108.037 45.4764L109.577 46.6389L109.939 44.743L108.76 44.5185ZM109.162 37.8855V36.6855H107.962V37.8855H109.162ZM133.382 37.8855H134.582V36.6855H133.382V37.8855ZM133.382 54.669V55.869H134.582V54.669H133.382ZM127.553 54.669V53.469H126.637L126.396 54.3533L127.553 54.669ZM126.649 57.9855L125.491 57.6698L125.277 58.4533L125.925 58.9429L126.649 57.9855ZM135.694 64.8195L136.65 65.5442L137.376 64.5865L136.417 63.8621L135.694 64.8195ZM123.433 81L122.702 81.9521L123.66 82.6868L124.389 81.7247L123.433 81ZM116.096 75.372L116.827 74.4199L116.129 73.8845L115.408 74.3889L116.096 75.372ZM99.7147 62.709L100.317 63.7467L101.862 62.85L100.448 61.759L99.7147 62.709ZM86.9512 52.86L87.6843 51.91L87.1021 51.4607L86.4375 51.7755L86.9512 52.86ZM83.9362 55.3725L84.9039 56.0821L84.9147 56.0674L84.9251 56.0523L83.9362 55.3725ZM85.0417 63.2115L84.3975 64.2239L84.4239 64.2407L84.4513 64.2562L85.0417 63.2115ZM89.0617 81.207C78.3959 81.207 70.3617 79.2484 64.8112 75.4843L63.4642 77.4707C69.5717 81.6126 78.1536 83.607 89.0617 83.607V81.207ZM64.8243 75.4933C59.3845 71.6981 56.6947 66.5384 56.6947 59.895H54.2947C54.2947 67.3216 57.3669 73.2169 63.4511 77.4617L64.8243 75.4933ZM56.6947 59.895C56.6947 55.4655 58.016 51.6861 60.642 48.4973L58.7894 46.9716C55.7874 50.6169 54.2947 54.9445 54.2947 59.895H56.6947ZM60.6492 48.4885C63.3344 45.1641 66.687 42.6716 70.726 41.0047L69.8104 38.7863C65.4074 40.6034 61.7251 43.3369 58.7822 46.9805L60.6492 48.4885ZM70.9657 38.919C67.2919 36.2949 64.5966 33.6467 62.8247 30.9889L60.8278 32.3201C62.8079 35.2903 65.7406 38.1361 69.5707 40.872L70.9657 38.919ZM62.8247 30.9889C61.0943 28.3932 60.2122 25.3475 60.2122 21.8055H57.8122C57.8122 25.7675 58.8062 29.2877 60.8278 32.3201L62.8247 30.9889ZM60.2122 21.8055C60.2122 17.7995 61.4856 14.402 64.0285 11.5489L62.2369 9.95205C59.2858 13.263 57.8122 17.2355 57.8122 21.8055H60.2122ZM64.0285 11.5489C66.6035 8.65991 70.1887 6.4495 74.8544 4.95909L74.1241 2.67291C69.1417 4.26449 65.1559 6.67708 62.2369 9.95205L64.0285 11.5489ZM74.864 4.95597C79.6117 3.39508 85.0427 2.60399 91.1722 2.60399V0.203994C84.8398 0.203994 79.1487 1.02092 74.1144 2.67603L74.864 4.95597ZM91.1722 2.60399C97.3728 2.60399 103.019 3.36259 108.119 4.8665L108.798 2.56449C103.446 0.986394 97.5676 0.203994 91.1722 0.203994V2.60399ZM108.119 4.8665C113.293 6.39228 117.024 8.0529 119.404 9.80706L120.828 7.87493C118.117 5.87708 114.075 4.12071 108.798 2.56449L108.119 4.8665ZM118.916 8.84099V28.137H121.316V8.84099H118.916ZM120.116 26.937H99.0112V29.337H120.116V26.937ZM100.211 28.137V26.328H97.8112V28.137H100.211ZM100.211 26.328C100.211 23.7543 99.606 21.6077 98.1512 20.153L96.4542 21.85C97.2775 22.6733 97.8112 24.0777 97.8112 26.328H100.211ZM98.1512 20.153C96.7078 18.7096 94.6402 18.093 92.1772 18.093V20.493C94.2702 20.493 95.6196 21.0154 96.4542 21.85L98.1512 20.153ZM92.1772 18.093C89.9443 18.093 88.0488 18.5215 86.6919 19.5769C85.2777 20.6768 84.6457 22.2992 84.6457 24.2175H87.0457C87.0457 22.8528 87.469 22.0129 88.1653 21.4713C88.9189 20.8852 90.1892 20.493 92.1772 20.493V18.093ZM84.6457 24.2175C84.6457 25.8373 85.2943 27.3158 86.4534 28.6294L88.253 27.0415C87.4021 26.0772 87.0457 25.1437 87.0457 24.2175H84.6457ZM86.4794 28.6579C87.6186 29.8683 89.3546 31.3555 91.6493 33.1102L93.1072 31.2038C90.8458 29.4745 89.2319 28.0807 88.2271 27.0131L86.4794 28.6579ZM91.6554 33.1149L108.037 45.4764L109.483 43.5606L93.101 31.1991L91.6554 33.1149ZM109.939 44.743C110.224 43.2457 110.362 41.5602 110.362 39.6945H107.962C107.962 41.4468 107.832 42.9773 107.581 44.294L109.939 44.743ZM110.362 39.6945V37.8855H107.962V39.6945H110.362ZM109.162 39.0855H133.382V36.6855H109.162V39.0855ZM132.182 37.8855V54.669H134.582V37.8855H132.182ZM133.382 53.469H127.553V55.869H133.382V53.469ZM126.396 54.3533L125.491 57.6698L127.806 58.3012L128.711 54.9847L126.396 54.3533ZM125.925 58.9429L134.97 65.7769L136.417 63.8621L127.372 57.0281L125.925 58.9429ZM134.737 64.0948L122.476 80.2753L124.389 81.7247L136.65 65.5442L134.737 64.0948ZM124.163 80.0479L116.827 74.4199L115.366 76.3241L122.702 81.9521L124.163 80.0479ZM115.408 74.3889C108.974 78.8928 100.231 81.207 89.0617 81.207V83.607C100.539 83.607 109.819 81.2312 116.784 76.3551L115.408 74.3889ZM91.6747 65.718C95.0949 65.718 98.0021 65.091 100.317 63.7467L99.1122 61.6713C97.2733 62.739 94.8205 63.318 91.6747 63.318V65.718ZM100.448 61.759L87.6843 51.91L86.2181 53.81L98.9816 63.659L100.448 61.759ZM86.4375 51.7755C84.9896 52.4614 83.8141 53.4319 82.9474 54.6927L84.9251 56.0523C85.5323 55.1691 86.3669 54.4646 87.4649 53.9445L86.4375 51.7755ZM82.9685 54.6629C82.0772 55.8784 81.6307 57.2671 81.6307 58.7895H84.0307C84.0307 57.7659 84.3213 56.8766 84.9039 56.0821L82.9685 54.6629ZM81.6307 58.7895C81.6307 61.1373 82.5203 63.0293 84.3975 64.2239L85.686 62.1991C84.6151 61.5177 84.0307 60.4617 84.0307 58.7895H81.6307ZM84.4513 64.2562C86.2519 65.2739 88.7029 65.718 91.6747 65.718V63.318C88.8845 63.318 86.9135 62.8911 85.6322 62.1668L84.4513 64.2562Z" fill="#1F1F1F" mask="url(#path-4-outside-1_163_22)"/>
</svg>
