<svg width="24" height="24" viewBox="0 0 24 24" fill="none" xmlns="http://www.w3.org/2000/svg">
<path d="M11.8582 0.363647C8.69809 0.363647 8.30149 0.377466 7.06032 0.433951C5.82157 0.490678 4.97602 0.686799 4.23616 0.974557C3.47085 1.27177 2.82166 1.66934 2.17489 2.31637C1.52764 2.96316 1.13007 3.61237 0.8319 4.37747C0.543424 5.11759 0.347067 5.96341 0.291311 7.20171C0.235797 8.44292 0.221252 8.83977 0.221252 12C0.221252 15.1603 0.235313 15.5556 0.291554 16.7969C0.348522 18.0356 0.544637 18.8812 0.832143 19.6211C1.12959 20.3864 1.52715 21.0356 2.17416 21.6824C2.82069 22.3297 3.46988 22.7283 4.23471 23.0255C4.97505 23.3132 5.82084 23.5093 7.05935 23.5661C8.30052 23.6226 8.69687 23.6364 11.8568 23.6364C15.0172 23.6364 15.4126 23.6226 16.6537 23.5661C17.8925 23.5093 18.739 23.3132 19.4793 23.0255C20.2444 22.7283 20.8926 22.3297 21.5392 21.6824C22.1864 21.0356 22.584 20.3864 22.8821 19.6213C23.1682 18.8812 23.3646 18.0354 23.4227 16.7971C23.4785 15.5559 23.493 15.1603 23.493 12C23.493 8.83977 23.4785 8.44316 23.4227 7.20195C23.3646 5.96316 23.1682 5.11759 22.8821 4.37771C22.584 3.61237 22.1864 2.96316 21.5392 2.31637C20.8919 1.6691 20.2446 1.27153 19.4786 0.974557C18.7368 0.686799 17.8908 0.490678 16.652 0.433951C15.4109 0.377466 15.0157 0.363647 11.8546 0.363647H11.8582ZM10.8144 2.46062C11.1242 2.46013 11.4699 2.46062 11.8582 2.46062C14.965 2.46062 15.3333 2.47177 16.5602 2.52753C17.6947 2.57941 18.3104 2.76898 18.7206 2.92825C19.2636 3.13916 19.6507 3.39128 20.0577 3.79856C20.465 4.20583 20.7171 4.59371 20.9285 5.13674C21.0878 5.54643 21.2776 6.16219 21.3292 7.29674C21.385 8.5234 21.3971 8.89189 21.3971 11.9973C21.3971 15.1028 21.385 15.4713 21.3292 16.698C21.2773 17.8325 21.0878 18.4483 20.9285 18.858C20.7176 19.401 20.465 19.7876 20.0577 20.1947C19.6505 20.6019 19.2638 20.8541 18.7206 21.065C18.3109 21.225 17.6947 21.4141 16.5602 21.466C15.3335 21.5217 14.965 21.5338 11.8582 21.5338C8.75117 21.5338 8.38295 21.5217 7.15632 21.466C6.0218 21.4136 5.40606 21.224 4.99565 21.0647C4.45264 20.8538 4.06477 20.6017 3.65751 20.1944C3.25025 19.7872 2.99814 19.4003 2.78675 18.857C2.62748 18.4473 2.43767 17.8315 2.38604 16.697C2.33028 15.4703 2.31913 15.1018 2.31913 11.9944C2.31913 8.88704 2.33028 8.5205 2.38604 7.29383C2.43791 6.15928 2.62748 5.54353 2.78675 5.13334C2.99765 4.59031 3.25025 4.20244 3.65751 3.79516C4.06477 3.38789 4.45264 3.13577 4.99565 2.92437C5.40582 2.76437 6.0218 2.57528 7.15632 2.52316C8.22974 2.47468 8.64573 2.46013 10.8144 2.45771V2.46062ZM18.0694 4.39274C17.2986 4.39274 16.6731 5.01747 16.6731 5.78862C16.6731 6.55953 17.2986 7.18498 18.0694 7.18498C18.8403 7.18498 19.4658 6.55953 19.4658 5.78862C19.4658 5.01771 18.8403 4.39225 18.0694 4.39225V4.39274ZM11.8582 6.02425C8.55821 6.02425 5.88266 8.69989 5.88266 12C5.88266 15.3001 8.55821 17.9746 11.8582 17.9746C15.1583 17.9746 17.8328 15.3001 17.8328 12C17.8328 8.69989 15.158 6.02425 11.858 6.02425H11.8582ZM11.8582 8.12122C14.0002 8.12122 15.7369 9.85771 15.7369 12C15.7369 14.1421 14.0002 15.8788 11.8582 15.8788C9.71599 15.8788 7.97956 14.1421 7.97956 12C7.97956 9.85771 9.71599 8.12122 11.8582 8.12122Z" fill="white"/>
</svg>
