<svg width="183" height="107" viewBox="0 0 183 107" fill="none" xmlns="http://www.w3.org/2000/svg">
<path d="M0 64.9618H5.27883V17.3514H0V0H48.4599C57.5395 0 64.4724 1.86916 69.2585 5.60745C74.0447 9.34575 76.4377 15.4117 76.4377 23.8052C76.4377 28.531 75.4876 32.622 73.5872 36.0781C71.6868 39.5343 68.977 41.9324 65.4577 43.2726L65.5633 44.3306C72.3202 45.3886 75.6987 49.5501 75.6987 56.8151V64.9618H80.6608V82.3131H47.1929V57.4499C47.1929 54.6991 46.7706 52.6183 45.926 51.2076C45.1518 49.797 43.8849 48.8448 42.1253 48.351C40.436 47.8573 38.0078 47.6104 34.8404 47.6104V64.9618H41.8085V82.3131H0V64.9618ZM40.5416 34.7027C42.5828 34.7027 44.096 34.1737 45.0814 33.1157C46.1372 31.9872 46.6651 30.2591 46.6651 27.9314V24.1226C46.6651 21.795 46.1372 20.1022 45.0814 19.0442C44.096 17.9156 42.5828 17.3514 40.5416 17.3514H34.8404V34.7027H40.5416ZM102.339 64.9618H107.618V17.3514H102.339V0H150.799C159.879 0 166.812 1.86916 171.598 5.60745C176.384 9.34575 178.777 15.4117 178.777 23.8052C178.777 28.531 177.827 32.622 175.926 36.0781C174.026 39.5343 171.316 41.9324 167.797 43.2726L167.902 44.3306C174.659 45.3886 178.038 49.5501 178.038 56.8151V64.9618H183V82.3131H149.532V57.4499C149.532 54.6991 149.11 52.6183 148.265 51.2076C147.491 49.797 146.224 48.8448 144.464 48.351C142.775 47.8573 140.347 47.6104 137.18 47.6104V64.9618H144.148V82.3131H102.339V64.9618ZM142.881 34.7027C144.922 34.7027 146.435 34.1737 147.421 33.1157C148.476 31.9872 149.004 30.2591 149.004 27.9314V24.1226C149.004 21.795 148.476 20.1022 147.421 19.0442C146.435 17.9156 144.922 17.3514 142.881 17.3514H137.18V34.7027H142.881Z" fill="white"/>
<path d="M87.2557 83.7239C76.1794 83.7239 67.6486 81.7103 61.6633 77.6831C55.7467 73.5875 52.7885 67.9563 52.7885 60.7891C52.7885 56.011 54.2332 51.8814 57.1227 48.4002C60.0121 44.8507 63.624 42.1887 67.9582 40.414C64.1056 37.6836 61.2161 34.885 59.2898 32.0182C57.3634 29.1513 56.4003 25.8067 56.4003 21.9842C56.4003 17.6156 57.8106 13.8614 60.6313 10.7215C63.452 7.58163 67.339 5.22672 72.2924 3.65677C77.3146 2.01856 83.0247 1.19946 89.4229 1.19946C95.8898 1.19946 101.806 1.98443 107.172 3.55438C112.539 5.12434 116.529 6.86492 119.143 8.77616V28.4346H97.4721V26.5916C97.4721 24.1343 96.8873 22.3255 95.7178 21.1651C94.5482 20.0047 92.7939 19.4245 90.4548 19.4245C86.1206 19.4245 83.9535 21.0968 83.9535 24.4415C83.9535 25.7384 84.4695 26.967 85.5014 28.1274C86.6022 29.2878 104.997 43.5083 107.337 45.2831C103.86 52.2859 102.058 55.8631 98.5385 62.9165L85.0886 53.622C84.9083 53.7147 84.739 53.8038 84.5795 53.8906C83.4996 54.4872 82.8627 55.0446 81.9928 56.1817C81.1831 57.413 80.9469 58.1783 80.8576 59.6628C80.8591 59.8017 80.8624 59.9357 80.8677 60.0651C80.9318 61.3186 81.3006 62.352 81.9743 63.1655C82.2813 63.4931 82.6618 63.8181 83.1279 64.1679C83.4456 64.3021 83.747 64.4232 84.0367 64.5325C86.0017 65.2737 87.4578 65.4786 89.9388 65.4989C91.77 65.468 93.1381 65.3457 94.438 65.0419C95.581 64.7588 96.748 64.319 98.1945 63.656L107.482 45.1238C107.757 43.6904 107.895 42.0522 107.895 40.2092V38.3662H132.765V55.4649H126.78L125.851 58.8437L135.138 65.8061L122.549 82.2905L115.015 76.5568C108.136 81.3349 98.8824 83.7239 87.2557 83.7239Z" fill="#3E4246"/>
<path d="M97.9272 59.3243C98.255 59.4703 98.5334 59.8176 98.7694 60.0777C99.023 60.3572 99.2852 60.5693 99.5537 60.8238C99.8137 61.0703 100.041 61.3322 100.233 61.6352C100.477 62.0185 99.8049 61.7862 99.6838 61.6714C99.6509 61.6402 99.0145 61.1233 99.2067 61.0883C99.5539 61.025 99.748 60.8026 99.879 60.458C100.069 59.9578 100.378 59.6685 100.66 59.2446C101.185 58.4551 101.356 57.4392 101.744 56.5861C102.015 55.991 102.131 55.148 102.583 54.6592C102.973 54.2359 103.051 53.7347 103.298 53.2248C103.446 52.9197 103.506 52.601 103.602 52.2759C103.747 51.7825 104.06 51.3169 104.173 50.8271C104.274 50.3883 104.462 50.0523 104.599 49.639C104.796 49.0469 105.299 48.4811 105.734 48.0454C105.926 47.853 106.175 47.6726 106.345 47.4622C106.491 47.2826 106.469 47.1132 106.645 46.937" stroke="#3E4246" stroke-linecap="round"/>
<path d="M44.3729 104V102.36H44.8729V97.86H44.3729V96.22H50.3529V98.81H48.5829V97.86H47.6729V99.52H49.1829V100.66H47.6729V102.36H48.9829V104H44.3729ZM57.2512 102.36V104H54.5112V103.22C54.0312 103.833 53.4312 104.14 52.7112 104.14C52.1579 104.14 51.7412 103.967 51.4612 103.62C51.1879 103.273 51.0512 102.797 51.0512 102.19V100.08H50.6112V98.44H53.3512V101.72C53.3512 101.94 53.3979 102.103 53.4912 102.21C53.5912 102.31 53.7379 102.36 53.9312 102.36C54.1245 102.36 54.2679 102.31 54.3612 102.21C54.4612 102.103 54.5112 101.94 54.5112 101.72V100.08H53.9712V98.44H56.8112V102.36H57.2512ZM64.1667 102.36V104H61.0067V102.36H61.4267V100.72C61.4267 100.5 61.38 100.34 61.2867 100.24C61.1933 100.133 61.0533 100.08 60.8667 100.08C60.4667 100.08 60.2667 100.293 60.2667 100.72V102.36H60.6867V104H57.5267V102.36H57.9667V100.08H57.5267V98.44H60.2667V99.22C60.7467 98.6067 61.3467 98.3 62.0667 98.3C62.62 98.3 63.0333 98.4733 63.3067 98.82C63.5867 99.1667 63.7267 99.6433 63.7267 100.25V102.36H64.1667ZM64.9696 97.89V96.22H67.0096V97.89H64.9696ZM64.4896 104V102.36H64.9296V100.08H64.4896V98.44H67.2296V102.36H67.6696V104H64.4896ZM67.9466 104.01V102.36H68.3866V97.86H67.9466V96.22H70.6866V102.36H71.1266V104.01H67.9466ZM77.2727 102.36V104H74.6327V103.32C74.486 103.533 74.2794 103.723 74.0127 103.89C73.7527 104.057 73.4327 104.14 73.0527 104.14C72.5527 104.14 72.1594 104.007 71.8727 103.74C71.586 103.473 71.4427 103.097 71.4427 102.61C71.4427 101.35 72.5127 100.703 74.6527 100.67C74.6327 100.443 74.546 100.29 74.3927 100.21C74.2394 100.123 73.9794 100.08 73.6127 100.08C73.3127 100.08 72.9894 100.113 72.6427 100.18C72.3027 100.24 71.9894 100.323 71.7027 100.43V98.59C72.056 98.5033 72.4394 98.4333 72.8527 98.38C73.266 98.3267 73.6694 98.3 74.0627 98.3C75.056 98.3 75.766 98.48 76.1927 98.84C76.6194 99.2 76.8327 99.7567 76.8327 100.51V102.36H77.2727ZM74.6327 101.66C74.3327 101.66 74.0994 101.7 73.9327 101.78C73.7727 101.86 73.6927 101.993 73.6927 102.18C73.6927 102.293 73.726 102.387 73.7927 102.46C73.866 102.527 73.966 102.56 74.0927 102.56C74.266 102.56 74.3994 102.487 74.4927 102.34C74.586 102.193 74.6327 101.987 74.6327 101.72V101.66ZM81.865 98.3C81.9984 98.3 82.125 98.3133 82.245 98.34C82.365 98.3667 82.465 98.4 82.545 98.44V100.35C82.2717 100.237 81.9784 100.18 81.665 100.18C81.245 100.18 80.9217 100.29 80.695 100.51C80.4684 100.73 80.355 101.057 80.355 101.49V102.36H81.255V104H77.615V102.36H78.055V100.08H77.615V98.44H80.355V99.17C80.5417 98.89 80.755 98.6767 80.995 98.53C81.235 98.3767 81.525 98.3 81.865 98.3ZM83.3485 97.89V96.22H85.3885V97.89H83.3485ZM82.8685 104V102.36H83.3085V100.08H82.8685V98.44H85.6085V102.36H86.0485V104H82.8685ZM92.1555 102.36V104H89.5155V103.32C89.3688 103.533 89.1622 103.723 88.8955 103.89C88.6355 104.057 88.3155 104.14 87.9355 104.14C87.4355 104.14 87.0422 104.007 86.7555 103.74C86.4688 103.473 86.3255 103.097 86.3255 102.61C86.3255 101.35 87.3955 100.703 89.5355 100.67C89.5155 100.443 89.4288 100.29 89.2755 100.21C89.1222 100.123 88.8622 100.08 88.4955 100.08C88.1955 100.08 87.8722 100.113 87.5255 100.18C87.1855 100.24 86.8722 100.323 86.5855 100.43V98.59C86.9388 98.5033 87.3222 98.4333 87.7355 98.38C88.1488 98.3267 88.5522 98.3 88.9455 98.3C89.9388 98.3 90.6488 98.48 91.0755 98.84C91.5022 99.2 91.7155 99.7567 91.7155 100.51V102.36H92.1555ZM89.5155 101.66C89.2155 101.66 88.9822 101.7 88.8155 101.78C88.6555 101.86 88.5755 101.993 88.5755 102.18C88.5755 102.293 88.6088 102.387 88.6755 102.46C88.7488 102.527 88.8488 102.56 88.9755 102.56C89.1488 102.56 89.2822 102.487 89.3755 102.34C89.4688 102.193 89.5155 101.987 89.5155 101.72V101.66ZM98.4559 104.14C97.5092 104.14 96.7692 103.893 96.2359 103.4C95.7026 102.9 95.4359 102.173 95.4359 101.22C95.4359 100.267 95.7026 99.5433 96.2359 99.05C96.7692 98.55 97.5092 98.3 98.4559 98.3C99.3959 98.3 100.073 98.5467 100.486 99.04C100.906 99.5267 101.116 100.133 101.116 100.86V101.58H97.8759V101.64C97.8759 101.887 97.9492 102.07 98.0959 102.19C98.2426 102.303 98.4859 102.36 98.8259 102.36C99.2326 102.36 99.6192 102.33 99.9859 102.27C100.353 102.21 100.673 102.133 100.946 102.04V103.64C100.713 103.767 100.369 103.883 99.9159 103.99C99.4692 104.09 98.9826 104.14 98.4559 104.14ZM99.0359 100.48V100.36C99.0359 100.133 98.9859 99.97 98.8859 99.87C98.7926 99.77 98.6492 99.72 98.4559 99.72C98.2626 99.72 98.1159 99.7733 98.0159 99.88C97.9226 99.98 97.8759 100.14 97.8759 100.36V100.48H99.0359ZM104.431 102.36H104.931V97.86H104.431V96.22H108.821C109.681 96.22 110.338 96.4067 110.791 96.78C111.245 97.1467 111.471 97.7433 111.471 98.57C111.471 99.3967 111.245 99.9967 110.791 100.37C110.338 100.737 109.681 100.92 108.821 100.92H107.731V102.36H108.691V104H104.431V102.36ZM108.071 99.5C108.458 99.5 108.651 99.2867 108.651 98.86V98.5C108.651 98.28 108.601 98.12 108.501 98.02C108.408 97.9133 108.265 97.86 108.071 97.86H107.731V99.5H108.071ZM112.274 97.89V96.22H114.314V97.89H112.274ZM111.794 104V102.36H112.234V100.08H111.794V98.44H114.534V102.36H114.974V104H111.794ZM121.891 102.36V104H118.731V102.36H119.151V100.72C119.151 100.5 119.105 100.34 119.011 100.24C118.918 100.133 118.778 100.08 118.591 100.08C118.191 100.08 117.991 100.293 117.991 100.72V102.36H118.411V104H115.251V102.36H115.691V100.08H115.251V98.44H117.991V99.22C118.471 98.6067 119.071 98.3 119.791 98.3C120.345 98.3 120.758 98.4733 121.031 98.82C121.311 99.1667 121.451 99.6433 121.451 100.25V102.36H121.891ZM124.684 104.14C123.978 104.14 123.444 103.97 123.084 103.63C122.731 103.283 122.554 102.703 122.554 101.89V100.08H122.114V98.44C122.368 98.44 122.558 98.3767 122.684 98.25C122.811 98.1167 122.874 97.9367 122.874 97.71V97.26H124.994V98.44H126.344V100.08H124.994V101.72C124.994 101.94 125.041 102.103 125.134 102.21C125.234 102.31 125.381 102.36 125.574 102.36C125.828 102.36 126.104 102.33 126.404 102.27V103.84C126.218 103.913 125.964 103.98 125.644 104.04C125.331 104.107 125.011 104.14 124.684 104.14ZM133.306 102.36V104H130.566V103.22C130.086 103.833 129.486 104.14 128.766 104.14C128.213 104.14 127.796 103.967 127.516 103.62C127.243 103.273 127.106 102.797 127.106 102.19V100.08H126.666V98.44H129.406V101.72C129.406 101.94 129.453 102.103 129.546 102.21C129.646 102.31 129.793 102.36 129.986 102.36C130.179 102.36 130.323 102.31 130.416 102.21C130.516 102.103 130.566 101.94 130.566 101.72V100.08H130.026V98.44H132.866V102.36H133.306ZM137.851 98.3C137.985 98.3 138.111 98.3133 138.231 98.34C138.351 98.3667 138.451 98.4 138.531 98.44V100.35C138.258 100.237 137.965 100.18 137.651 100.18C137.231 100.18 136.908 100.29 136.681 100.51C136.455 100.73 136.341 101.057 136.341 101.49V102.36H137.241V104H133.601V102.36H134.041V100.08H133.601V98.44H136.341V99.17C136.528 98.89 136.741 98.6767 136.981 98.53C137.221 98.3767 137.511 98.3 137.851 98.3ZM144.685 102.36V104H142.045V103.32C141.898 103.533 141.691 103.723 141.425 103.89C141.165 104.057 140.845 104.14 140.465 104.14C139.965 104.14 139.571 104.007 139.285 103.74C138.998 103.473 138.855 103.097 138.855 102.61C138.855 101.35 139.925 100.703 142.065 100.67C142.045 100.443 141.958 100.29 141.805 100.21C141.651 100.123 141.391 100.08 141.025 100.08C140.725 100.08 140.401 100.113 140.055 100.18C139.715 100.24 139.401 100.323 139.115 100.43V98.59C139.468 98.5033 139.851 98.4333 140.265 98.38C140.678 98.3267 141.081 98.3 141.475 98.3C142.468 98.3 143.178 98.48 143.605 98.84C144.031 99.2 144.245 99.7567 144.245 100.51V102.36H144.685ZM142.045 101.66C141.745 101.66 141.511 101.7 141.345 101.78C141.185 101.86 141.105 101.993 141.105 102.18C141.105 102.293 141.138 102.387 141.205 102.46C141.278 102.527 141.378 102.56 141.505 102.56C141.678 102.56 141.811 102.487 141.905 102.34C141.998 102.193 142.045 101.987 142.045 101.72V101.66Z" fill="white"/>
<path d="M0 91H183" stroke="white" stroke-width="4"/>
</svg>
