<svg width="26" height="26" viewBox="0 0 26 26" fill="none" xmlns="http://www.w3.org/2000/svg">
<path d="M14.6767 15.6655L14.6595 15.6827L14.6486 15.7045C14.6095 15.7827 14.5604 15.8102 14.5069 15.8178C14.4437 15.8268 14.3558 15.8098 14.2506 15.7572L14.2507 15.757L14.2426 15.7535C13.4161 15.3993 12.5924 14.9284 11.8878 14.3423C11.2989 13.7528 10.7104 13.0465 10.2391 12.341C10.1661 12.1849 10.2398 12.0173 10.3345 11.9225C10.372 11.8851 10.4072 11.8407 10.4389 11.7996C10.4463 11.7901 10.4535 11.7807 10.4606 11.7714C10.4862 11.7381 10.511 11.7057 10.5385 11.6728C10.6077 11.5897 10.6819 11.5178 10.7749 11.4712L10.7967 11.4604L10.8139 11.4431C10.8887 11.3684 10.9572 11.2637 11.0068 11.1645C11.0444 11.0893 11.0796 11.0006 11.0924 10.9189C11.159 10.8301 11.1875 10.7197 11.1875 10.618C11.1875 10.4992 11.1487 10.3687 11.0558 10.2744C11.0552 10.2736 11.0521 10.2695 11.0461 10.2601C11.0376 10.2469 11.0268 10.2283 11.0135 10.204C10.987 10.1554 10.9542 10.0898 10.9163 10.0104C10.8407 9.85171 10.7479 9.64388 10.6507 9.41976C10.4602 8.97998 10.2551 8.48228 10.1347 8.18179C10.074 7.76867 9.97997 7.52065 9.84015 7.38083C9.69099 7.23167 9.51534 7.23188 9.39973 7.23201C9.39627 7.23202 9.39286 7.23202 9.38951 7.23202H8.79026C8.63035 7.23202 8.45235 7.30827 8.31292 7.38573C8.16959 7.46536 8.03747 7.56314 7.9651 7.63551C7.21976 8.38085 6.84251 9.25724 6.84251 10.2584V10.2667L6.84343 10.275C6.96562 11.3748 7.33265 12.479 8.06914 13.462C9.39927 15.396 11.0958 16.9729 13.1608 17.9447L13.1607 17.945L13.169 17.9483C13.3004 18.0008 13.4275 18.0541 13.5526 18.1066C13.9813 18.2864 14.3868 18.4564 14.8598 18.5526C15.49 18.8013 16.1163 18.7973 16.8432 18.6763C17.7383 18.5478 18.4895 17.9126 18.9825 17.1731L18.9877 17.1653L18.9918 17.157C19.2517 16.6372 19.249 16.1191 19.123 15.6153L19.1063 15.5484L19.0446 15.5175L18.5652 15.2778C18.4435 15.217 17.9948 15.0076 17.549 14.7995L17.5428 14.7967C17.0917 14.5861 16.6452 14.3778 16.5278 14.319C16.3906 14.2504 16.2405 14.2097 16.0825 14.2294C15.9229 14.2494 15.7737 14.3288 15.6355 14.467C15.5081 14.5944 15.324 14.8398 15.1501 15.0717L15.1422 15.0823C14.9588 15.3267 14.787 15.5552 14.6767 15.6655ZM21.6033 4.40246L21.6033 4.40242L21.6004 4.39955C16.8677 -0.333184 9.22218 -0.333184 4.48944 4.39955C0.620251 8.26874 -0.116156 14.1848 2.51695 18.9073L0.855351 24.9603L0.786372 25.2116L1.03831 25.145L7.33362 23.4821C9.13736 24.4337 11.0606 24.9103 12.985 24.9103C19.6587 24.9103 24.9986 19.5713 25.0002 12.898C25.1209 9.73642 23.7831 6.7034 21.6033 4.40246ZM7.55428 21.1394L4.08748 22.0341L4.98014 18.6866L4.9976 18.6211L4.96001 18.5647L4.7223 18.2082C1.89035 13.4847 3.30708 7.58404 7.91241 4.6319C12.5124 1.68317 18.4127 3.21383 21.2473 7.70111C24.0816 12.3078 22.78 18.326 18.1798 21.1569C16.6417 22.1034 14.8708 22.6927 12.985 22.6927C11.2174 22.6927 9.56582 22.2222 8.02862 21.3956L7.67497 21.1598L7.61919 21.1227L7.55428 21.1394Z" fill="white" stroke="white" stroke-width="0.3"/>
</svg>
