<svg width="32" height="11" viewBox="0 0 32 11" fill="none" xmlns="http://www.w3.org/2000/svg">
<path d="M5.67742 1C4.40879 1.03936 3.20759 1.54088 2.33275 2.39646C1.45792 3.25203 0.979515 4.39313 1.00067 5.57378C1.02183 6.75443 1.54086 7.88006 2.44586 8.70803C3.35087 9.536 4.56937 10 5.83871 10C7.10805 10 8.32655 9.536 9.23156 8.70803C10.1366 7.88006 10.6556 6.75443 10.6767 5.57378C10.6979 4.39313 10.2195 3.25203 9.34467 2.39646C8.46983 1.54088 7.26863 1.03936 6 1H5.67742ZM12.4516 1C11.183 1.03936 9.98178 1.54088 9.10694 2.39646C8.23211 3.25203 7.75371 4.39313 7.77487 5.57378C7.79602 6.75443 8.31505 7.88006 9.22005 8.70803C10.1251 9.536 11.3436 10 12.6129 10C13.8822 10 15.1007 9.536 16.0058 8.70803C16.9108 7.88006 17.4298 6.75443 17.4509 5.57378C17.4721 4.39313 16.9937 3.25203 16.1189 2.39646C15.244 1.54088 14.0428 1.03936 12.7742 1H12.4516ZM19.2258 1C17.9572 1.03936 16.756 1.54088 15.8811 2.39646C15.0063 3.25203 14.5279 4.39313 14.5491 5.57378C14.5702 6.75443 15.0892 7.88006 15.9942 8.70803C16.8993 9.536 18.1178 10 19.3871 10C20.6564 10 21.8749 9.536 22.7799 8.70803C23.6849 7.88006 24.204 6.75443 24.2251 5.57378C24.2463 4.39313 23.7679 3.25203 22.8931 2.39646C22.0182 1.54088 20.817 1.03936 19.5484 1H19.2258ZM26 1C24.7314 1.03936 23.5302 1.54088 22.6553 2.39646C21.7805 3.25203 21.3021 4.39313 21.3233 5.57378C21.3444 6.75443 21.8634 7.88006 22.7684 8.70803C23.6734 9.536 24.892 10 26.1613 10C27.4306 10 28.6491 9.536 29.5541 8.70803C30.4591 7.88006 30.9782 6.75443 30.9993 5.57378C31.0205 4.39313 30.5421 3.25203 29.6672 2.39646C28.7924 1.54088 27.5912 1.03936 26.3226 1H26Z" stroke="white" stroke-width="1.25"/>
</svg>
