<svg width="31" height="31" viewBox="0 0 31 31" fill="none" xmlns="http://www.w3.org/2000/svg">
<path d="M30.8771 12.6374H20.5631V10.6509C20.5633 10.6241 20.5582 10.5976 20.5481 10.5729C20.538 10.5481 20.523 10.5256 20.5042 10.5066C20.4853 10.4877 20.4629 10.4726 20.4382 10.4623C20.4136 10.4521 20.3871 10.4468 20.3603 10.4468H10.6406C10.6138 10.4468 10.5873 10.4521 10.5626 10.4623C10.538 10.4726 10.5155 10.4877 10.4967 10.5066C10.4778 10.5256 10.4629 10.5481 10.4528 10.5729C10.4427 10.5976 10.4376 10.6241 10.4378 10.6509V12.6374H3.04555C2.93318 12.6374 2.79626 12.7279 2.73943 12.8415L0.0256334 18.158C-0.0324916 18.2717 0.0114251 18.3608 0.125092 18.3608H10.4365V20.35C10.4365 20.4611 10.5269 20.5528 10.6393 20.5528H20.359C20.4714 20.5528 20.5618 20.4624 20.5618 20.35V18.3608H27.954C28.0664 18.3608 28.2033 18.2704 28.2615 18.158L30.974 12.8415C31.0321 12.7292 30.9882 12.6374 30.8758 12.6374M27.6544 13.9239L26.0476 17.0717H19.2895V19.2779H11.7152V17.0717H3.35168L4.9598 13.9239H11.7178V11.7191H19.2921V13.9239H27.6544Z" fill="white"/>
</svg>
