<svg width="17" height="15" viewBox="0 0 17 15" fill="none" xmlns="http://www.w3.org/2000/svg">
<path fill-rule="evenodd" clip-rule="evenodd" d="M16.4866 14.0909C15.0025 12.8542 10.5932 9.33503 8.5 9.33503C6.40591 9.33503 1.99996 12.8518 0.514909 14.0894C0.505989 13.797 0.497684 13.6194 0.497684 13.3591C0.497684 13.3591 0.461388 12.9292 0.852646 12.499C4.0719 9.66416 7.44711 8.27708 7.55077 8.23463C8.55721 7.82119 8.50061 7.89892 8.49969 6.23979C8.49969 6.23979 8.5446 6.2371 8.57321 6.24009C9.99059 6.36475 13.8014 9.95922 16.0566 12.3893C16.0606 12.3935 16.5017 12.8897 16.5017 13.4129C16.5023 13.658 16.4949 13.8999 16.4866 14.0909ZM16.426 12.0623C16.1864 11.804 10.543 5.74983 8.5 5.74983C6.45759 5.74983 0.813889 11.804 0.574582 12.062C0.551205 12.0874 0 12.6996 0 13.4132C0 13.9686 0.0378338 14.5276 0.038449 14.533C0.0396794 14.5587 0.0529058 14.7949 0.187939 14.8592C0.209778 14.8696 0.233463 14.875 0.257762 14.875C0.3079 14.875 0.363882 14.8532 0.424477 14.8101C0.485381 14.7578 6.23458 9.8226 8.5 9.8226C10.7657 9.8226 16.5152 14.7578 16.5728 14.8077C16.6355 14.8526 16.6921 14.875 16.7429 14.875C16.7675 14.875 16.7905 14.8696 16.8127 14.8595C16.9474 14.7955 16.9606 14.559 16.9619 14.5324C16.9622 14.5282 17 13.9692 17 13.4138C17 12.6996 16.4491 12.0877 16.426 12.0623ZM16.4786 8.33268C14.996 7.09745 10.591 3.58191 8.50031 3.58191C6.40837 3.58191 2.00673 7.09536 0.523214 8.33148C0.514294 8.03972 0.505989 7.86185 0.505989 7.60207C0.505989 7.60207 0.469693 7.17249 0.860642 6.74291C4.07683 3.91074 7.44865 2.52515 7.552 2.4827C8.55752 2.06957 8.50092 2.14729 8.5 0.489964C8.5 0.489964 8.5446 0.487274 8.57351 0.490263C9.98936 0.614921 13.7964 4.2058 16.0492 6.6332C16.0532 6.63738 16.494 7.13303 16.494 7.65588C16.4943 7.90041 16.4866 8.14195 16.4786 8.33268ZM16.418 6.30616C16.1784 6.04817 10.5409 0 8.5 0C6.45974 0 0.821579 6.04817 0.58258 6.30586C0.559203 6.33127 0.00830521 6.9429 0.00830521 7.65588C0.00830521 8.21071 0.0464466 8.76913 0.0467542 8.77451C0.0479846 8.80022 0.061211 9.03609 0.195936 9.10036C0.217775 9.11082 0.24146 9.1159 0.26576 9.1159C0.315897 9.1159 0.371572 9.09408 0.432167 9.05103C0.493378 8.99872 6.23674 4.06859 8.5 4.06859C10.7636 4.06859 16.5072 8.99872 16.5648 9.04864C16.6272 9.09348 16.6838 9.1156 16.7345 9.1156C16.7592 9.1156 16.7822 9.11052 16.8044 9.10006C16.9388 9.03609 16.9523 8.79992 16.9532 8.77332C16.9536 8.76913 16.9914 8.21071 16.9914 7.65588C16.9917 6.9429 16.4414 6.33157 16.418 6.30616Z" fill="white"/>
</svg>
