<svg width="24" height="17" viewBox="0 0 24 17" fill="none" xmlns="http://www.w3.org/2000/svg">
<path fill-rule="evenodd" clip-rule="evenodd" d="M4.55709 7.7531H2.66754L2.67458 2.22166H5.14154L5.12824 0.000488281H0L0.463537 17.0001H2.71697L2.66754 9.95059H4.55709V7.7531Z" fill="white"/>
<path fill-rule="evenodd" clip-rule="evenodd" d="M8.67972 0H6.02051L6.30558 16.9997H8.63247L8.67972 0Z" fill="white"/>
<path fill-rule="evenodd" clip-rule="evenodd" d="M18.7138 16.9997H20.9651L21.4432 2.14174H23.2661L23.2521 0H16.9287V2.1442H18.7667L18.7138 16.9997Z" fill="white"/>
<path fill-rule="evenodd" clip-rule="evenodd" d="M12.1871 7.86791L12.2126 2.09365H13.5117C14.1007 3.37969 14.4792 5.08037 14.7759 7.86791H12.1871ZM10.1112 16.9993H10.3394H12.0188H12.2653L12.2893 9.96979H14.8704C15.0733 11.2106 15.123 15.0405 15.1351 16.9993H15.3485H17.0344H17.2248C17.4219 8.3206 16.8095 3.41505 15.1173 0H9.91406L10.1112 16.9993V16.9993Z" fill="white"/>
</svg>
