<svg width="44" height="17" viewBox="0 0 44 17" fill="none" xmlns="http://www.w3.org/2000/svg">
<path d="M30.3656 10.2451C30.3713 10.2829 30.42 10.319 30.4672 10.3361C30.4846 10.342 30.4931 10.3538 30.4749 10.3939C30.3404 10.6872 30.2167 10.8563 30.0481 11.1111C29.893 11.3466 29.7183 11.5303 29.5068 11.707C29.1877 11.9756 28.7446 12.2679 28.3783 12.0714C28.2156 11.9855 28.1452 11.7538 28.1484 11.5663C28.1561 11.0389 28.3867 10.4975 28.8126 9.96543C29.3317 9.31523 29.9057 8.97799 30.2823 9.16232C30.672 9.35141 30.5477 9.81039 30.3731 10.1707C30.3596 10.1986 30.3596 10.2222 30.3654 10.245M34.5473 6.1359C34.5753 6.08558 34.5458 6.04883 34.4834 6.04883C34.1579 6.04883 33.7308 6.04958 33.3916 6.04958C33.3109 6.04958 33.2691 6.05939 33.2311 6.13605C33.1059 6.38003 31.5803 8.70592 31.2964 9.15758C31.2484 9.22638 31.1901 9.21673 31.1833 9.13791C31.1545 8.86965 30.9268 8.56127 30.568 8.41372C30.2945 8.30089 30.0272 8.28044 29.7493 8.31798C29.2475 8.38658 28.8005 8.65583 28.4075 8.95952C27.8151 9.41759 27.3041 10.0113 26.6443 10.45C26.2842 10.6889 25.791 10.8971 25.461 10.5862C25.1623 10.3045 25.1961 9.67893 25.653 9.19504C25.7012 9.14433 25.7589 9.18716 25.7498 9.23218C25.7067 9.451 25.7595 9.66864 25.923 9.82122C26.1223 10.003 26.4076 10.0236 26.6518 9.9022C26.94 9.75695 27.1093 9.47648 27.1587 9.15815C27.235 8.66436 26.8614 8.22885 26.3938 8.1939C26.014 8.16678 25.6498 8.30121 25.2949 8.59919C25.1169 8.74936 25.0159 8.86029 24.862 9.08293C24.8245 9.13777 24.7669 9.14325 24.7686 9.06227C24.786 8.43006 24.5292 8.07437 24.0155 8.06278C23.6166 8.05295 23.1906 8.27319 22.8585 8.54253C22.4945 8.83994 22.1762 9.23409 21.8349 9.60444C21.7924 9.65004 21.7555 9.64787 21.7435 9.55942C21.7338 9.14054 21.6297 8.73482 21.4391 8.44671C21.3717 8.34646 21.2297 8.29691 21.1105 8.36453C21.0554 8.39519 20.8639 8.48483 20.7244 8.59907C20.6552 8.65705 20.6282 8.741 20.6589 8.84857C20.8428 9.47437 20.8024 10.1859 20.5528 10.7868C20.3236 11.3372 19.8782 11.8336 19.3547 12.0016C19.0099 12.1129 18.6514 12.0584 18.4295 11.7474C18.1249 11.3182 18.2479 10.5717 18.7021 9.95181C19.1029 9.40599 19.6827 9.05929 20.2609 8.83604C20.3289 8.80931 20.343 8.76488 20.3237 8.70611C20.2924 8.6094 20.2422 8.47769 20.2219 8.41759C20.1687 8.2739 20.0203 8.25069 19.8389 8.27074C19.4188 8.32047 19.0397 8.46692 18.6653 8.67087C17.6849 9.20496 17.1933 10.2386 16.9779 10.7916C16.8742 11.0573 16.7855 11.223 16.6708 11.3699C16.5163 11.5676 16.3222 11.7475 15.9675 12.0644C15.9354 12.0935 15.9114 12.1541 15.9385 12.2105C15.9746 12.2867 16.1592 12.5518 16.2112 12.5755C16.269 12.6044 16.336 12.5637 16.3629 12.5444C16.6111 12.3732 16.9081 12.1019 17.0535 11.9178C17.1045 11.8547 17.1569 11.8813 17.1839 11.977C17.3195 12.4693 17.6747 12.8712 18.1658 13.0394C19.0648 13.3478 19.9972 12.9014 20.701 12.1243C21.1483 11.6303 21.3098 11.3126 21.4812 11.0967C21.7718 10.7305 22.3449 9.9112 23.0276 9.3852C23.2779 9.19119 23.5742 9.04323 23.7231 9.14151C23.8428 9.22033 23.8814 9.4035 23.6895 9.75842C22.9935 11.0514 21.9695 12.5705 21.7816 12.9388C21.7473 13.0027 21.7778 13.053 21.8431 13.053C22.2073 13.0512 22.5683 13.0521 22.899 13.0521C22.954 13.0501 22.9786 13.0238 23.0062 12.9843C23.5404 12.1337 24.043 11.3242 24.5818 10.4872C24.612 10.4379 24.6398 10.4754 24.641 10.497C24.6525 10.6912 24.6989 10.9568 24.8123 11.1313C25.016 11.4537 25.3046 11.5922 25.6247 11.5944C25.8794 11.5983 26.0083 11.558 26.283 11.4536C26.5065 11.3693 26.6859 11.2586 26.8236 11.1585C26.9039 11.1015 26.918 11.1968 26.9161 11.2114C26.7925 11.8866 26.9451 12.6867 27.6048 13.0184C28.3943 13.4144 29.2616 12.8578 29.7607 12.3554C29.8095 12.307 29.8619 12.3121 29.8669 12.4165C29.8785 12.6083 29.9627 12.836 30.1188 12.9953C30.537 13.4222 31.3809 13.253 32.2278 12.5862C32.7716 12.1592 33.3405 11.556 33.8544 10.9173C33.8738 10.8925 33.8877 10.8528 33.8506 10.8125C33.7723 10.7292 33.6591 10.6338 33.5815 10.5604C33.5461 10.5297 33.4942 10.5386 33.4644 10.5615C32.9376 11.0711 32.4634 11.6524 31.778 12.133C31.5469 12.2972 31.1785 12.4296 31.013 12.2016C30.9485 12.1132 30.9558 11.9909 31.0188 11.8303C31.2186 11.3234 34.3824 6.42345 34.5466 6.13446" fill="white"/>
<path d="M19.6623 6.72721C19.6758 6.79994 19.7036 6.81411 19.7361 6.80801C19.8972 6.77519 20.0736 6.64034 20.178 6.48404C20.2731 6.34232 20.3177 6.13781 20.2232 6.05587C20.139 5.98216 20.0018 6.00298 19.9001 6.09438C19.6976 6.27639 19.6361 6.53464 19.6622 6.72736M11.5988 13.0347C10.4191 13.0426 9.37992 12.3015 9.26066 11.0177C9.19439 10.3063 9.39205 9.67229 9.78779 9.14996C10.1389 8.68453 10.7331 8.29787 11.2361 8.2034C11.3997 8.17294 11.6196 8.19161 11.7105 8.30247C11.8531 8.47131 11.8122 8.65678 11.6696 8.73079C11.2858 8.93008 10.8241 9.27127 10.5957 9.73715C10.4104 10.1174 10.3729 10.5757 10.656 11.0122C11.1297 11.7398 12.4502 11.7598 13.6779 10.5995C13.982 10.3155 14.2541 10.0426 14.5307 9.71945C15.0715 9.09047 15.2513 8.86127 15.9701 7.84697C15.9779 7.83518 15.9817 7.81983 15.9779 7.81236C15.9721 7.7986 15.9624 7.79663 15.941 7.79467C15.4611 7.80843 15.0427 7.9537 14.6361 8.26285C14.519 8.34973 14.3505 8.33753 14.2767 8.22314C14.1946 8.0938 14.2535 7.92543 14.3886 7.83036C15.0427 7.36755 15.7573 7.28361 16.4871 7.15832C16.4865 7.15832 16.5377 7.16028 16.5795 7.10446C16.879 6.71335 17.1052 6.36055 17.4246 5.96502C17.7464 5.56371 18.162 5.19519 18.4795 4.91838C18.9228 4.53065 19.2071 4.40018 19.496 4.24026C19.5721 4.19977 19.4863 4.15142 19.4631 4.15142C17.8502 3.84302 16.1736 3.44395 14.5717 4.04723C13.4623 4.46839 12.9761 5.36337 13.2099 5.96139C13.3763 6.3856 13.9247 6.45456 14.4382 6.19896C14.8646 5.9864 15.2593 5.64382 15.539 5.20283C15.6955 4.95792 16.0254 5.13462 15.8472 5.55989C15.3784 6.68069 14.4829 7.56973 13.392 7.60728C12.4637 7.63794 11.8647 6.94317 11.8667 6.08604C11.8705 4.39545 13.7206 3.28182 15.6649 3.11534C18.0064 2.91849 20.2242 3.55299 22.5492 3.83986C24.3304 4.0593 26.0382 4.06386 27.8287 3.64545C28.0403 3.59867 28.1888 3.73606 28.175 3.95353C28.1577 4.26789 27.9182 4.57064 27.3286 4.89781C26.6579 5.27197 25.9563 5.38551 25.2235 5.3916C23.4517 5.40732 21.8012 4.70401 20.0933 4.32649C20.0952 4.40255 20.1149 4.49315 20.0523 4.54117C19.1063 5.25104 18.2511 5.97191 17.6784 6.9844C17.6591 7.00779 17.6687 7.03001 17.7029 7.02765C18.2002 7.00072 18.6474 6.98774 19.1116 6.95C19.1928 6.94213 19.1958 6.92248 19.1887 6.86233C19.1475 6.51334 19.2478 6.11538 19.5496 5.84163C19.8585 5.55993 20.2452 5.5279 20.5015 5.73078C20.793 5.96182 20.7672 6.37731 20.6078 6.68891C20.4455 7.00508 20.1774 7.17418 19.9202 7.25628C19.9202 7.25628 19.8661 7.26808 19.8742 7.318C19.8839 7.3978 20.2348 7.5954 20.2648 7.64804C20.2938 7.69816 20.2784 7.77581 20.2256 7.83537C20.1885 7.87861 20.1304 7.9191 20.056 7.91773C19.9959 7.91651 19.9594 7.89532 19.8825 7.85306C19.7252 7.76638 19.5286 7.62386 19.3975 7.45585C19.3529 7.39904 19.33 7.39788 19.2186 7.40417C18.7162 7.43365 17.9329 7.51071 17.4022 7.57812C17.2735 7.59385 17.2546 7.6188 17.2281 7.6642C16.3819 9.08364 15.4784 10.6143 14.4865 11.6392C13.4225 12.738 12.5381 13.0273 11.5992 13.0348" fill="white"/>
<path d="M21.857 2.42864C10.8265 2.42864 1.88504 4.70815 1.88504 8.50243C1.88504 12.297 10.8261 14.5715 21.8566 14.5715C32.887 14.5715 41.8275 12.297 41.8275 8.50243C41.8275 4.70815 32.8874 2.42864 21.857 2.42864ZM21.8566 16.0229C10.4246 16.0229 1.15723 12.6559 1.15723 8.50243C1.15723 4.34833 10.4246 0.981934 21.8566 0.981934C33.2876 0.981934 42.5544 4.34833 42.5544 8.50243C42.5544 12.6559 33.2876 16.0229 21.8566 16.0229Z" fill="white"/>
</svg>
