<svg width="21" height="17" viewBox="0 0 21 17" fill="none" xmlns="http://www.w3.org/2000/svg">
<path d="M15.4948 1.30762C14.9981 3.46109 14.7935 4.46041 14.3844 6.00866C13.9899 7.5006 13.6831 8.89402 13.1571 9.56962C12.6311 10.2593 11.9151 10.4 11.433 10.4563C11.1846 10.4845 10.9946 10.4986 10.454 10.4986C9.9134 10.4986 9.72345 10.4845 9.47507 10.4563C8.9929 10.4 8.27696 10.2593 7.75096 9.56962C7.22496 8.89402 6.91813 7.5006 6.53824 6.00866C6.12913 4.44633 5.92457 3.46109 5.42779 1.30762C5.42779 1.30762 4.93102 1.32169 4.71185 1.33577C4.40502 1.34984 4.17124 1.37799 3.92285 1.40614C3.92285 1.40614 4.21507 5.83976 4.34657 7.7258C4.47807 9.6963 4.72646 13.0321 4.94563 15.5515C4.94563 15.5515 5.36935 15.6219 6.07068 15.65C6.80124 15.6922 7.13729 15.6922 7.13729 15.6922C7.44413 14.5803 7.8094 13.0461 8.23312 12.3846C8.58379 11.8498 9.10979 11.7935 9.41662 11.7512C9.88418 11.6949 10.2933 11.6809 10.4686 11.6809C10.6586 11.6809 11.0531 11.6809 11.5206 11.7512C11.8275 11.7935 12.3535 11.8498 12.7041 12.3846C13.1278 13.0461 13.5077 14.5803 13.8 15.6922C13.8 15.6922 14.1214 15.6922 14.8519 15.65C15.5533 15.6078 15.977 15.5515 15.977 15.5515C16.1962 13.0321 16.4446 9.71037 16.5761 7.7258C16.7076 5.85383 16.9998 1.40614 16.9998 1.40614C16.7514 1.37799 16.503 1.34984 16.2108 1.33577C15.9916 1.32169 15.4948 1.30762 15.4948 1.30762Z" fill="white"/>
<path d="M20.8112 4.0403C20.5316 1.24424 18.6579 0.657072 17.0219 0.377467C16.1969 0.237664 14.7287 0.125822 13.7918 0.0838816C12.9668 0.0279604 11.0372 0 10.4499 0C9.86264 0 7.933 0.0279605 7.10802 0.0838816C6.17116 0.125822 4.70296 0.237664 3.87797 0.377467C2.24198 0.657072 0.368278 1.24424 0.0886208 4.0403C0.00472391 4.80921 -0.00925887 5.80181 0.00472384 6.86431C0.0326891 8.6398 0.186501 9.82812 0.270398 10.6669C0.32633 11.2401 0.564038 12.9457 0.871661 13.8265C1.29115 15.0428 1.66868 15.3923 2.11614 15.7558C2.92714 16.4128 4.2695 16.6225 4.54915 16.6785C6.0593 16.9441 9.10757 17 10.4639 17C11.8063 17 14.8685 16.9581 16.3787 16.6785C16.6583 16.6225 18.0007 16.4268 18.8117 15.7558C19.2591 15.3923 19.6367 15.0428 20.0561 13.8265C20.3638 12.9457 20.6015 11.2262 20.6574 10.6669C20.7413 9.8421 20.8951 8.6398 20.9231 6.86431C20.9091 5.78783 20.8811 4.79523 20.8112 4.0403M19.7765 8.73766C19.6087 10.9745 19.4129 12.3166 19.1333 13.2812C18.8816 14.134 18.574 14.6933 18.1265 15.0987C17.3714 15.7837 16.3367 15.9235 15.7215 16.0214C14.4071 16.2171 12.1838 16.287 10.4499 16.287C8.70206 16.287 6.49277 16.2171 5.17838 16.0214C4.56313 15.9235 3.5284 15.7837 2.77333 15.0987C2.32588 14.6933 2.01825 14.1201 1.76656 13.2812C1.48691 12.3166 1.27716 10.9745 1.12335 8.73766C1.02547 7.39556 1.03945 5.21464 1.19327 4.0403C1.40301 2.27878 2.26995 1.39803 4.12967 1.07648C4.9966 0.922697 6.17116 0.810855 7.27581 0.754934C8.17071 0.699013 9.62493 0.671052 10.4499 0.671052C11.2609 0.657072 12.7291 0.699013 13.61 0.754934C14.7147 0.810855 15.8893 0.922697 16.7562 1.07648C18.6159 1.41201 19.4828 2.29276 19.7066 4.0403C19.8604 5.20066 19.8744 7.38158 19.7765 8.73766Z" fill="white"/>
</svg>
