<svg width="34" height="17" viewBox="0 0 34 17" fill="none" xmlns="http://www.w3.org/2000/svg">
<path fill-rule="evenodd" clip-rule="evenodd" d="M20.5593 10.4645C20.8181 11.7772 20.117 12.8675 19.5343 13.9258C18.8872 14.9105 17.8191 15.7568 16.5353 15.6301C13.6545 15.5878 10.8389 15.1538 8.22782 14.3808C8.10927 14.3491 7.99072 14.2748 7.92582 14.1691C7.8718 14.0208 7.94757 13.8831 8.05525 13.7881C10.4397 11.8931 13.2771 11.0148 16.0821 10.0935C17.1285 9.79716 18.24 9.4795 19.4158 9.62784C19.9009 9.69151 20.3863 10.0199 20.5593 10.4645V10.4645ZM30.3877 4.85425C31.7255 5.9339 32.9339 7.40557 32.5238 9.18388C31.8549 11.8092 28.9422 13.2065 26.6226 14.0955C25.3602 14.5085 24.0873 14.9322 22.7063 15.0592C22.62 15.0485 22.4797 15.0695 22.458 14.9425L22.4902 14.7945C24.4538 12.6242 25.9424 10.1899 27.2484 7.72324C27.8524 6.61158 28.4136 5.46861 28.9313 4.34627C29.0067 4.2616 29.0825 4.21927 29.1688 4.18761C29.6539 4.22959 29.9994 4.60026 30.3877 4.85425V4.85425ZM11.5611 2.05962L11.518 2.21827C8.68065 5.38323 6.81424 9.05653 5.04499 12.7085C4.69984 13.0262 4.3652 12.6025 4.05232 12.4648C2.47703 11.4488 1.05293 9.80784 1.46298 7.8602C2.12101 5.31991 4.78576 3.96492 7.00856 3.04429C8.32462 2.55729 9.69507 2.16562 11.1406 1.94329C11.2917 1.94294 11.4857 1.92195 11.5611 2.05962ZM25.6408 2.5676C25.8025 2.65227 25.9968 2.68393 26.094 2.84258C26.1803 3.02259 26.0077 3.13891 25.9105 3.25559C23.6772 4.97022 21.1205 5.92323 18.5094 6.75956C17.1821 7.07723 15.8443 7.64889 14.3665 7.33122C14.021 7.24656 13.7085 7.02423 13.5142 6.69589C13.1473 5.7009 13.6436 4.66358 14.0751 3.79559C14.6468 2.70527 15.6612 1.42428 17.0636 1.40329C20.0843 1.38194 22.9325 1.82661 25.6408 2.5676V2.5676ZM29.3736 2.65227C31.661 3.88026 34.2503 6.03956 33.9806 8.91886C33.6677 11.5865 31.1324 13.4495 28.8668 14.5718C22.2531 17.6735 12.9642 17.7684 6.13481 15.0588C3.82573 14.1168 1.23638 12.4972 0.265109 10.0622C-0.479209 8.06154 0.426807 5.97624 1.94843 4.58959C5.13091 1.75262 9.1875 0.778977 13.363 0.217631C17.8945 -0.322372 22.6628 0.153955 26.7194 1.51961C27.6258 1.84796 28.5213 2.20796 29.3736 2.65227Z" fill="white"/>
</svg>
