<svg width="33" height="17" viewBox="0 0 33 17" fill="none" xmlns="http://www.w3.org/2000/svg">
<path d="M23.3758 12.0777L16.3929 2.73458L9.40987 12.0777C7.05168 11.8499 2.99925 10.3231 2.99925 7.61126C2.99925 4.19303 8.95197 1.00268 16.4158 1.00268C24.2688 1.00268 29.8323 4.19303 29.8323 7.61126C29.8323 10.3458 25.7569 11.8727 23.4216 12.055M16.3929 0C6.73115 0 0 3.76005 0 8.61394C0 10.8928 1.46528 13.445 4.57901 14.9946C7.48668 16.4303 11.562 16.9316 12.1344 17L16.3929 4.62601L20.6513 17C23.256 16.7096 25.8026 16.0337 28.2067 14.9946C31.3204 13.445 32.7857 10.8928 32.7857 8.61394C32.7628 3.73727 26.0546 0 16.3929 0Z" fill="white"/>
</svg>
