<svg width="43" height="17" viewBox="0 0 43 17" fill="none" xmlns="http://www.w3.org/2000/svg">
<g clip-path="url(#clip0_151_23)">
<path d="M35.4452 9.0754C35.4106 10.9667 35.8224 11.9686 37.394 11.9686C38.9631 11.9686 39.1883 10.262 39.1883 8.96342C39.1883 7.66396 38.8905 6.40249 37.242 6.40249C36.2307 6.40249 35.4841 7.18205 35.4452 9.0754ZM32.2656 16.979V4.17635H35.4841C35.4841 4.17635 35.4841 4.36175 35.4841 4.69568C35.4841 5.3884 35.7657 5.10275 35.9926 4.8328C36.0306 4.78766 36.7479 3.91669 38.3633 3.91669C39.9738 3.91669 42.4792 5.02962 42.4792 8.96342C42.4792 12.0063 40.9845 14.2324 38.403 14.2324C36.9805 14.2324 36.1581 13.6768 35.9701 13.4525C35.7818 13.2314 35.5203 13.1929 35.5203 13.4525C35.5203 13.7128 35.5203 16.979 35.5203 16.979H32.2656" fill="white"/>
<path d="M7.38986 0.0212623H10.8689C10.8689 0.0212623 10.8689 7.51637 10.8689 9.0755C10.8689 10.6329 10.1948 13.8994 5.37017 13.8994C0.544979 13.8994 0.0214844 10.8549 0.0214844 9.1492V7.47952H3.38821C3.38821 7.47952 3.38821 8.11026 3.38821 9.11149C3.38821 10.1133 4.06172 11.0405 5.33274 11.0405C6.60433 11.0405 7.38986 10.3358 7.38986 9.1492C7.38986 7.96171 7.38986 0.0212623 7.38986 0.0212623Z" fill="white"/>
<path d="M18.1444 7.70175C18.1444 6.77307 17.6217 5.88267 16.4247 5.88267C15.2652 5.88267 14.8534 6.69823 14.8534 7.70175H18.1444ZM16.0893 3.80508C18.8214 3.80508 21.2142 4.84373 21.2142 9.6308H14.7437C14.7437 11.1522 15.3789 11.7832 16.501 11.7832C17.6235 11.7832 17.9972 10.892 17.9972 10.892H21.1777C21.1777 12.2654 19.2697 14.1208 16.3887 14.0839C13.098 14.0839 11.4893 11.6718 11.4893 9.18546C11.4893 6.69823 12.9097 3.80508 16.0893 3.80508" fill="white"/>
<path d="M28.489 7.70175C28.489 6.77307 27.9658 5.88267 26.7688 5.88267C25.6098 5.88267 25.1971 6.69823 25.1971 7.70175H28.489ZM26.4339 3.80508C29.1657 3.80508 31.558 4.84373 31.558 9.6308H25.0877C25.0877 11.1522 25.7235 11.7832 26.8465 11.7832C27.9678 11.7832 28.3421 10.892 28.3421 10.892H31.5226C31.5226 12.2654 29.6143 14.1208 26.7342 14.0839C23.4418 14.0839 21.833 11.6718 21.833 9.18546C21.833 6.69823 23.2552 3.80508 26.4339 3.80508" fill="white"/>
<path d="M40.3483 15.4444C40.3483 14.9373 40.7644 14.5254 41.2773 14.5254C41.7884 14.5254 42.2036 14.9373 42.2036 15.4444C42.2036 15.9506 41.7884 16.365 41.2773 16.365C40.7644 16.365 40.3483 15.9506 40.3483 15.4444ZM40.2412 15.4444C40.2412 16.0117 40.7042 16.4722 41.2773 16.4722C41.8465 16.4722 42.3122 16.0117 42.3122 15.4444C42.3122 14.8771 41.8465 14.4166 41.2773 14.4166C40.7042 14.4166 40.2412 14.8771 40.2412 15.4444" fill="white"/>
<path d="M41.6921 15.9697L41.477 15.4658C41.5453 15.4424 41.568 15.4258 41.6043 15.3873C41.6515 15.337 41.6812 15.2576 41.6812 15.1856C41.6812 15.0039 41.5404 14.8802 41.3362 14.8802H40.9043V15.9697H41.0324V15.4978H41.3446L41.5496 15.9697H41.6921ZM41.029 15.3873V14.9988H41.3336C41.4609 14.9988 41.5418 15.0708 41.5418 15.1822C41.5418 15.3087 41.456 15.3873 41.3158 15.3873H41.029Z" fill="white"/>
</g>
<defs>
<clipPath id="clip0_151_23">
<rect width="42.5" height="17" fill="white"/>
</clipPath>
</defs>
</svg>
