<svg width="19" height="19" viewBox="0 0 19 19" fill="none" xmlns="http://www.w3.org/2000/svg">
<g clip-path="url(#clip0_151_51)">
<path d="M9.49921 10.1935C9.47071 10.1935 9.41608 10.1571 9.32346 9.98769C8.9358 9.26592 8.40355 8.6318 7.75992 8.1249C7.25481 7.72874 6.6941 7.40917 6.09583 7.17648C6.00516 7.13965 5.91412 7.10376 5.82271 7.06881C5.02154 6.75215 4.19108 6.42519 3.42 5.97869C3.33453 5.9303 3.25006 5.88015 3.16667 5.82827C3.32025 5.5591 3.49917 5.30181 3.69708 5.06669C3.98431 4.72338 4.31821 4.42199 4.68904 4.17131C5.0872 3.90511 5.51763 3.69069 5.96996 3.53323C6.93421 3.18965 8.08925 3.02102 9.49921 3.01944C10.9107 3.02102 12.065 3.18965 13.0293 3.53402C13.4819 3.69094 13.9126 3.90511 14.311 4.17131C14.6816 4.42195 15.0154 4.72305 15.3029 5.0659C15.5008 5.30181 15.679 5.5591 15.8333 5.82827C15.7518 5.87894 15.6655 5.9304 15.58 5.98027C14.8073 6.42677 13.9785 6.75373 13.1757 7.0696L12.9026 7.17727C12.3049 7.41016 11.7447 7.72972 11.2401 8.12569C10.5962 8.63263 10.0639 9.26707 9.67654 9.98927C9.58392 10.1579 9.5285 10.1935 9.49921 10.1935ZM9.49921 15.793C8.27687 15.7914 7.28412 15.6909 6.46712 15.4866C5.66517 15.2871 4.99858 14.9799 4.42779 14.5461C3.99025 14.2101 3.61694 13.7979 3.32579 13.3293C3.05304 12.8921 2.83753 12.4217 2.68454 11.9296C2.44595 11.1649 2.32137 10.3692 2.31483 9.5681C2.31483 9.03452 2.35204 8.52865 2.42171 8.06315C3.29729 8.53498 4.12617 8.77169 4.86004 8.98148L5.03025 9.02898C6.0515 9.32269 6.86217 9.70744 7.51213 10.207C7.88817 10.4983 8.21671 10.8348 8.48588 11.2076C8.778 11.6098 9.01075 12.069 9.18017 12.5733C9.25617 12.8021 9.3385 12.9438 9.49921 12.9438C9.66308 12.9438 9.74304 12.8013 9.81983 12.5733C10.122 11.6333 10.704 10.808 11.4879 10.2078C12.137 9.70744 12.9485 9.32269 13.9698 9.02898L14.1407 8.98148C14.8738 8.77169 15.7027 8.53498 16.5775 8.06315C16.6488 8.52944 16.6852 9.03452 16.6852 9.56731C16.6852 9.9299 16.6488 10.8846 16.317 11.9296C16.1641 12.4216 15.9489 12.892 15.6766 13.3293C15.3845 13.7982 15.0101 14.2104 14.5714 14.5461C13.999 14.9799 13.3325 15.2871 12.5337 15.4866C11.7143 15.6909 10.7223 15.7914 9.49921 15.793ZM17.172 4.26948C15.6608 2.64656 13.2216 1.9024 9.49921 1.89844C5.77837 1.9024 3.33925 2.64577 1.82796 4.26869C0.704583 5.47281 0 7.13927 0 9.40027C0 10.6503 0.30875 13.8336 2.8215 15.4771C4.32567 16.4604 6.26842 17.0969 9.49921 17.1016C12.7316 17.0969 14.6735 16.4604 16.1785 15.4771C18.6905 13.8336 19 10.6495 19 9.40027C19 7.1456 18.2899 5.46727 17.1713 4.2679L17.172 4.26948Z" fill="white"/>
</g>
<defs>
<clipPath id="clip0_151_51">
<rect width="19" height="19" fill="white"/>
</clipPath>
</defs>
</svg>
