<svg width="21" height="17" viewBox="0 0 21 17" fill="none" xmlns="http://www.w3.org/2000/svg">
<g clip-path="url(#clip0_151_37)">
<path d="M12.0298 9.17947C12.0134 9.1835 11.9479 9.1835 11.9192 9.1835H9.80577V9.66726H11.9561C11.9725 9.66726 12.0994 9.66725 12.124 9.66322C12.5623 9.62291 12.7629 9.26412 12.7629 8.94968C12.7629 8.62718 12.5541 8.28049 12.1568 8.24421C12.0789 8.23614 12.0134 8.23614 11.9847 8.23614H10.5799C10.5184 8.23614 10.4488 8.23211 10.4242 8.22405C10.3136 8.19583 10.2727 8.09908 10.2727 8.01845C10.2727 7.94589 10.3136 7.84914 10.4283 7.81689C10.4611 7.80883 10.498 7.80479 10.5758 7.80479H12.6032V7.3291H10.543C10.457 7.3291 10.3915 7.33313 10.3382 7.3412C9.98598 7.38957 9.74023 7.66773 9.74023 8.02248C9.74023 8.31274 9.92455 8.65137 10.33 8.70781C10.4038 8.71587 10.5062 8.71587 10.5512 8.71587H11.9192C11.9438 8.71587 12.0052 8.71587 12.0175 8.7199C12.1732 8.74006 12.2264 8.85293 12.2264 8.95372C12.2264 9.05047 12.165 9.15528 12.0298 9.17947Z" fill="white"/>
<path d="M8.02394 9.17947C8.00755 9.1835 7.94202 9.1835 7.91745 9.1835H5.79991V9.66726H7.95021C7.9666 9.66726 8.09357 9.66725 8.11814 9.66322C8.55639 9.62291 8.75709 9.26412 8.75709 8.94968C8.75709 8.62718 8.5482 8.28049 8.15091 8.24421C8.07309 8.23614 8.00755 8.23614 7.97888 8.23614H6.57402C6.51258 8.23614 6.44295 8.23211 6.41838 8.22405C6.30779 8.19583 6.26683 8.09908 6.26683 8.01845C6.26683 7.94589 6.30779 7.84914 6.42247 7.81689C6.45524 7.80883 6.4921 7.80479 6.56992 7.80479H8.59735V7.3291H6.53716C6.45114 7.3291 6.38561 7.33313 6.33236 7.3412C5.98012 7.38957 5.73438 7.66773 5.73438 8.02248C5.73438 8.31274 5.91869 8.65137 6.32417 8.70781C6.3979 8.71587 6.50029 8.71587 6.54535 8.71587H7.91335C7.93793 8.71587 7.99936 8.71587 8.01165 8.7199C8.16729 8.74006 8.22054 8.85293 8.22054 8.95372C8.22054 9.05047 8.1632 9.15528 8.02394 9.17947V9.17947Z" fill="white"/>
<path d="M4.6975 7.31299H4.16504V9.67936H4.6975V7.31299Z" fill="white"/>
<path d="M2.98995 9.67936V7.31299H2.45749V9.0787L0.684002 7.31299H0V9.67936H0.532457V7.90559L2.31823 9.67936H2.98995Z" fill="white"/>
<path d="M20.1147 7.31299V9.0787L18.3412 7.31299H17.6572V9.67936H18.1897V7.90559L19.9714 9.67936H20.6431V7.31299H20.1147Z" fill="white"/>
<path d="M14.8838 7.31299L13.3848 9.67936H14.0319L14.2981 9.25607H16.047L16.3133 9.67936H16.9563L15.4573 7.31299H14.8838ZM15.7726 8.8086H14.5726L15.1746 7.85721L15.7726 8.8086Z" fill="white"/>
<path d="M2.96154 5.97035C4.03465 2.88641 6.99183 0.814323 10.3258 0.814323C13.6598 0.814323 16.6211 2.88641 17.6901 5.97035L17.6983 5.99454H20.0452V5.71638L19.0704 5.60351C18.4683 5.53497 18.3413 5.27294 18.1775 4.94237L18.1366 4.86175C16.7276 1.91084 13.6598 0 10.3258 0C6.98773 0 3.92406 1.91084 2.5151 4.86981L2.47414 4.95044C2.31031 5.281 2.18334 5.54304 1.58125 5.61157L0.606445 5.72445V6.0026H2.94925L2.96154 5.97035Z" fill="white"/>
<path d="M17.6981 11.0016L17.6899 11.0258C16.6168 14.1097 13.6596 16.1778 10.3256 16.1778C6.99164 16.1778 4.03036 14.1057 2.96135 11.0217L2.95316 10.9976H0.610352V11.2757L1.58516 11.3886C2.18724 11.4571 2.31421 11.7192 2.47805 12.0497L2.519 12.1304C3.92797 15.0893 6.99573 17.0002 10.3297 17.0002C13.6637 17.0002 16.7315 15.0893 18.1405 12.1344L18.1814 12.0538C18.3453 11.7232 18.4722 11.4612 19.0743 11.3926L20.0491 11.2797V11.0016H17.6981Z" fill="white"/>
</g>
<defs>
<clipPath id="clip0_151_37">
<rect width="20.6429" height="17" fill="white"/>
</clipPath>
</defs>
</svg>
