<svg width="27" height="17" viewBox="0 0 27 17" fill="none" xmlns="http://www.w3.org/2000/svg">
<g clip-path="url(#clip0_151_67)">
<path d="M13.0771 0.117676C5.92228 0.117676 0.121094 3.87048 0.121094 8.49849C0.121094 13.1282 5.92228 16.8827 13.0771 16.8827C20.232 16.8827 26.0332 13.1299 26.0332 8.49849C26.0332 3.86707 20.232 0.117676 13.0771 0.117676ZM13.0771 13.2848C12.0129 13.2848 11.1445 11.1888 11.09 8.55127C11.7303 8.60746 12.396 8.63811 13.0771 8.63811C13.7582 8.63811 14.424 8.60746 15.0642 8.55127C15.0097 11.1871 14.1413 13.2848 13.0771 13.2848ZM11.2212 6.45692C11.5106 4.59244 12.2326 3.26942 13.0771 3.26942C13.9217 3.26942 14.6436 4.59244 14.9331 6.45692C14.3388 6.5097 13.7191 6.53865 13.0771 6.53865C12.4352 6.53865 11.8154 6.5097 11.2212 6.45692ZM13.0771 1.33002C11.6877 1.33002 10.5026 3.41074 10.065 6.31559C7.43089 5.90524 5.59195 4.96874 5.59195 3.8807C5.59195 2.41295 8.94291 1.22274 13.0771 1.22274C17.2113 1.22274 20.5623 2.41295 20.5623 3.8807C20.5623 4.96874 18.7234 5.90524 16.0892 6.31559C15.6516 3.41074 14.4665 1.33002 13.0771 1.33002ZM1.97877 8.18518C1.97877 6.76511 2.52534 5.43188 3.47716 4.28765C3.46695 4.36768 3.46014 4.44941 3.46014 4.53114C3.46014 6.3207 6.14363 7.84634 9.88792 8.40824C9.88452 8.53765 9.88452 8.66876 9.88452 8.79987C9.88452 12.1355 10.8193 14.9603 12.1117 15.919C6.43309 15.5767 1.97877 12.2445 1.97877 8.18518ZM14.0426 15.919C15.3349 14.9603 16.2697 12.1355 16.2697 8.79987C16.2697 8.66705 16.268 8.53765 16.2663 8.40824C20.0089 7.84634 22.6941 6.3224 22.6941 4.53114C22.6941 4.44941 22.6873 4.36768 22.6771 4.28765C23.6289 5.43528 24.1755 6.76511 24.1755 8.18518C24.1755 12.2445 19.7212 15.5767 14.0426 15.919Z" fill="white"/>
</g>
<defs>
<clipPath id="clip0_151_67">
<rect width="26.1538" height="17" fill="white"/>
</clipPath>
</defs>
</svg>
