<svg width="17" height="17" viewBox="0 0 17 17" fill="none" xmlns="http://www.w3.org/2000/svg">
<g clip-path="url(#clip0_151_60)">
<path d="M8.50989 16.168C4.29823 16.168 0.847707 12.7006 0.847707 8.4889C0.847707 7.54169 1.01685 6.64523 1.33822 5.79952L5.82052 14.8148C5.87126 14.9332 5.95583 15.0347 6.09114 15.0347C6.22646 15.0347 6.31103 14.9332 6.36177 14.8148L8.42532 10.1972C8.44223 10.1465 8.47606 10.0958 8.52681 10.0958C8.57755 10.0958 8.59446 10.1465 8.62829 10.1972L10.6918 14.8148C10.7426 14.9332 10.8272 15.0347 10.9625 15.0347C11.0978 15.0347 11.1824 14.9332 11.2331 14.8148L15.7154 5.79952C16.0368 6.64523 16.2059 7.54169 16.2059 8.4889C16.1721 12.7006 12.7216 16.168 8.50989 16.168ZM8.50989 6.74672C8.45915 6.74672 8.44223 6.69598 8.40841 6.64523L6.00657 1.23265C6.78463 0.945111 7.63035 0.792882 8.50989 0.792882C9.38944 0.792882 10.2352 0.945111 11.0132 1.23265L8.61138 6.64523C8.57755 6.71289 8.56063 6.74672 8.50989 6.74672ZM6.05732 12.3115C6.00657 12.3115 5.98966 12.2608 5.95583 12.21L2.06554 4.3618C2.75902 3.2962 3.68931 2.39974 4.82257 1.77391L7.63035 8.01529C7.66418 8.11678 7.74875 8.15061 7.83332 8.15061H9.18646C9.28795 8.15061 9.35561 8.13369 9.40635 8.01529L12.2141 1.77391C13.3305 2.39974 14.2777 3.2962 14.9712 4.3618L11.047 12.21C11.0301 12.2608 10.9963 12.3115 10.9456 12.3115C10.8948 12.3115 10.8779 12.2608 10.8441 12.21L9.37252 8.86101C9.32178 8.74261 9.25412 8.7257 9.15264 8.7257H7.79949C7.698 8.7257 7.63035 8.74261 7.5796 8.86101L6.1588 12.21C6.14189 12.2608 6.10806 12.3115 6.05732 12.3115ZM8.50989 16.9461C13.1952 16.9461 16.967 13.1742 16.967 8.4889C16.967 3.80363 13.1952 0.0317383 8.50989 0.0317383C3.82463 0.0317383 0.0527344 3.80363 0.0527344 8.4889C0.0527344 13.1742 3.82463 16.9461 8.50989 16.9461Z" fill="white"/>
</g>
<defs>
<clipPath id="clip0_151_60">
<rect width="17" height="17" fill="white"/>
</clipPath>
</defs>
</svg>
