<svg width="1920" height="1019" viewBox="0 0 1920 1019" fill="none" xmlns="http://www.w3.org/2000/svg">
<path opacity="0.3" d="M641.2 985.6H655V960.4C651.667 964.667 647.333 968.467 642 971.8C636.8 975.133 630.8 976.8 624 976.8C610.4 976.8 600.133 971.733 593.2 961.6C586.4 951.467 583 937.067 583 918.4C583 899.733 586.4 885.333 593.2 875.2C600.133 865.067 610.4 860 624 860C630.8 860 636.8 861.667 642 865C647.333 868.333 651.667 872.133 655 876.4V862.8H709.8V895.6H701V1018.4H641.2V985.6ZM643.4 941.2C647.267 941.2 650.133 940.2 652 938.2C654 936.067 655 932.8 655 928.4V908.4C655 904 654 900.8 652 898.8C650.133 896.667 647.267 895.6 643.4 895.6C639.533 895.6 636.6 896.667 634.6 898.8C632.733 900.8 631.8 904 631.8 908.4V928.4C631.8 932.8 632.733 936.067 634.6 938.2C636.6 940.2 639.533 941.2 643.4 941.2ZM846.669 941.2V974H791.869V958.4C782.269 970.667 770.269 976.8 755.869 976.8C744.802 976.8 736.469 973.333 730.869 966.4C725.402 959.467 722.669 949.933 722.669 937.8V895.6H713.869V862.8H768.669V928.4C768.669 932.8 769.602 936.067 771.469 938.2C773.469 940.2 776.402 941.2 780.269 941.2C784.135 941.2 787.002 940.2 788.869 938.2C790.869 936.067 791.869 932.8 791.869 928.4V895.6H781.069V862.8H837.869V941.2H846.669ZM911.778 976.8C892.845 976.8 878.045 971.867 867.378 962C856.711 952 851.378 937.467 851.378 918.4C851.378 899.333 856.711 884.867 867.378 875C878.045 865 892.845 860 911.778 860C930.578 860 944.111 864.933 952.378 874.8C960.778 884.533 964.978 896.667 964.978 911.2V925.6H900.178V926.8C900.178 931.733 901.645 935.4 904.578 937.8C907.511 940.067 912.378 941.2 919.178 941.2C927.311 941.2 935.045 940.6 942.378 939.4C949.711 938.2 956.111 936.667 961.578 934.8V966.8C956.911 969.333 950.045 971.667 940.978 973.8C932.045 975.8 922.311 976.8 911.778 976.8ZM923.378 903.6V901.2C923.378 896.667 922.378 893.4 920.378 891.4C918.511 889.4 915.645 888.4 911.778 888.4C907.911 888.4 904.978 889.467 902.978 891.6C901.111 893.6 900.178 896.8 900.178 901.2V903.6H923.378ZM1172.93 941.2V974H1109.73V941.2H1118.13V908.4C1118.13 904 1117.19 900.8 1115.33 898.8C1113.46 896.667 1110.66 895.6 1106.93 895.6C1098.93 895.6 1094.93 899.867 1094.93 908.4V941.2H1103.33V974H1040.53V941.2H1048.93V908.4C1048.93 904 1047.99 900.8 1046.13 898.8C1044.26 896.667 1041.46 895.6 1037.73 895.6C1029.73 895.6 1025.73 899.867 1025.73 908.4V941.2H1034.13V974H970.928V941.2H979.728V895.6H970.928V862.8H1025.73V878.4C1035.33 866.133 1047.33 860 1061.73 860C1069.86 860 1076.46 861.933 1081.53 865.8C1086.73 869.533 1090.39 874.867 1092.53 881.8C1097.33 874.867 1102.79 869.533 1108.93 865.8C1115.19 862.067 1122.53 860.2 1130.93 860.2C1141.99 860.2 1150.26 863.667 1155.73 870.6C1161.33 877.533 1164.13 887.067 1164.13 899.2V941.2H1172.93ZM1287.89 976.8C1271.09 976.8 1254.89 974.133 1239.29 968.8V939.2H1271.69V941.2C1271.69 947.6 1275.75 950.8 1283.89 950.8C1291.09 950.8 1294.69 948.333 1294.69 943.4C1294.69 940.733 1293.62 938.733 1291.49 937.4C1289.49 936.067 1285.89 934.933 1280.69 934L1270.69 932.2C1249.75 928.467 1239.29 916.6 1239.29 896.6C1239.29 885 1243.69 876 1252.49 869.6C1261.29 863.2 1273.15 860 1288.09 860C1304.75 860 1318.82 862.8 1330.29 868.4V896.2H1299.89V894.2C1299.89 891.533 1298.95 889.533 1297.09 888.2C1295.35 886.733 1292.75 886 1289.29 886C1282.62 886 1279.29 888.133 1279.29 892.4C1279.29 894.667 1280.22 896.4 1282.09 897.6C1283.95 898.8 1287.35 899.933 1292.29 901L1303.69 903.2C1315.55 905.467 1324.02 909.667 1329.09 915.8C1334.15 921.933 1336.69 929.8 1336.69 939.4C1336.69 951.533 1332.42 960.8 1323.89 967.2C1315.49 973.6 1303.49 976.8 1287.89 976.8ZM1402.6 976.8C1383.67 976.8 1368.87 971.867 1358.2 962C1347.53 952 1342.2 937.467 1342.2 918.4C1342.2 899.333 1347.53 884.867 1358.2 875C1368.87 865 1383.67 860 1402.6 860C1421.8 860 1436.67 865.067 1447.2 875.2C1457.73 885.2 1463 899.6 1463 918.4C1463 937.467 1457.67 952 1447 962C1436.33 971.867 1421.53 976.8 1402.6 976.8ZM1402.6 941.2C1406.47 941.2 1409.33 940.2 1411.2 938.2C1413.2 936.067 1414.2 932.8 1414.2 928.4V908.4C1414.2 904 1413.2 900.8 1411.2 898.8C1409.33 896.667 1406.47 895.6 1402.6 895.6C1398.73 895.6 1395.8 896.667 1393.8 898.8C1391.93 900.8 1391 904 1391 908.4V928.4C1391 932.8 1391.93 936.067 1393.8 938.2C1395.8 940.2 1398.73 941.2 1402.6 941.2ZM1671.37 941.2V974H1608.17V941.2H1616.57V908.4C1616.57 904 1615.63 900.8 1613.77 898.8C1611.9 896.667 1609.1 895.6 1605.37 895.6C1597.37 895.6 1593.37 899.867 1593.37 908.4V941.2H1601.77V974H1538.97V941.2H1547.37V908.4C1547.37 904 1546.43 900.8 1544.57 898.8C1542.7 896.667 1539.9 895.6 1536.17 895.6C1528.17 895.6 1524.17 899.867 1524.17 908.4V941.2H1532.57V974H1469.37V941.2H1478.17V895.6H1469.37V862.8H1524.17V878.4C1533.77 866.133 1545.77 860 1560.17 860C1568.3 860 1574.9 861.933 1579.97 865.8C1585.17 869.533 1588.83 874.867 1590.97 881.8C1595.77 874.867 1601.23 869.533 1607.37 865.8C1613.63 862.067 1620.97 860.2 1629.37 860.2C1640.43 860.2 1648.7 863.667 1654.17 870.6C1659.77 877.533 1662.57 887.067 1662.57 899.2V941.2H1671.37ZM1737.36 976.8C1718.43 976.8 1703.63 971.867 1692.96 962C1682.3 952 1676.96 937.467 1676.96 918.4C1676.96 899.333 1682.3 884.867 1692.96 875C1703.63 865 1718.43 860 1737.36 860C1756.56 860 1771.43 865.067 1781.96 875.2C1792.5 885.2 1797.76 899.6 1797.76 918.4C1797.76 937.467 1792.43 952 1781.76 962C1771.1 971.867 1756.3 976.8 1737.36 976.8ZM1737.36 941.2C1741.23 941.2 1744.1 940.2 1745.96 938.2C1747.96 936.067 1748.96 932.8 1748.96 928.4V908.4C1748.96 904 1747.96 900.8 1745.96 898.8C1744.1 896.667 1741.23 895.6 1737.36 895.6C1733.5 895.6 1730.56 896.667 1728.56 898.8C1726.7 900.8 1725.76 904 1725.76 908.4V928.4C1725.76 932.8 1726.7 936.067 1728.56 938.2C1730.56 940.2 1733.5 941.2 1737.36 941.2ZM1852.73 976.8C1835.93 976.8 1819.73 974.133 1804.13 968.8V939.2H1836.53V941.2C1836.53 947.6 1840.6 950.8 1848.73 950.8C1855.93 950.8 1859.53 948.333 1859.53 943.4C1859.53 940.733 1858.46 938.733 1856.33 937.4C1854.33 936.067 1850.73 934.933 1845.53 934L1835.53 932.2C1814.6 928.467 1804.13 916.6 1804.13 896.6C1804.13 885 1808.53 876 1817.33 869.6C1826.13 863.2 1838 860 1852.93 860C1869.6 860 1883.66 862.8 1895.13 868.4V896.2H1864.73V894.2C1864.73 891.533 1863.8 889.533 1861.93 888.2C1860.2 886.733 1857.6 886 1854.13 886C1847.46 886 1844.13 888.133 1844.13 892.4C1844.13 894.667 1845.06 896.4 1846.93 897.6C1848.8 898.8 1852.2 899.933 1857.13 901L1868.53 903.2C1880.4 905.467 1888.86 909.667 1893.93 915.8C1899 921.933 1901.53 929.8 1901.53 939.4C1901.53 951.533 1897.26 960.8 1888.73 967.2C1880.33 973.6 1868.33 976.8 1852.73 976.8Z" fill="#373737"/>
</svg>
