<svg width="1920" height="1026" viewBox="0 0 1920 1026" fill="none" xmlns="http://www.w3.org/2000/svg">
<g clip-path="url(#clip0_1_116)">
<rect width="1920" height="1026" fill="#161616"/>
<path opacity="0.3" d="M157 1040.8C143.4 1040.8 133.133 1035.73 126.2 1025.6C119.4 1015.47 116 1001.07 116 982.4C116 963.733 119.4 949.333 126.2 939.2C133.133 929.067 143.4 924 157 924C163.8 924 169.8 925.667 175 929C180.333 932.333 184.667 936.133 188 940.4V915.2H176.2V882.4H234V1005.2H242.8V1038H188V1024.4C184.667 1028.67 180.333 1032.47 175 1035.8C169.8 1039.13 163.8 1040.8 157 1040.8ZM176.4 1005.2C180.267 1005.2 183.133 1004.2 185 1002.2C187 1000.07 188 996.8 188 992.4V972.4C188 968 187 964.8 185 962.8C183.133 960.667 180.267 959.6 176.4 959.6C172.533 959.6 169.6 960.667 167.6 962.8C165.733 964.8 164.8 968 164.8 972.4V992.4C164.8 996.8 165.733 1000.07 167.6 1002.2C169.6 1004.2 172.533 1005.2 176.4 1005.2ZM258.841 915.8V882.4H299.641V915.8H258.841ZM249.241 1038V1005.2H258.041V959.6H249.241V926.8H304.041V1005.2H312.841V1038H249.241ZM318.381 1005.2H327.181V959.6H318.381V926.8H327.581C327.581 910.533 331.515 898.6 339.381 891C347.381 883.4 358.981 879.6 374.181 879.6C381.515 879.6 388.048 880.133 393.781 881.2C399.648 882.267 403.915 883.467 406.581 884.8V916.2C399.515 915.533 392.981 915.2 386.981 915.2C381.781 915.2 378.181 916.067 376.181 917.8C374.181 919.533 373.181 922.533 373.181 926.8H388.781V959.6H373.181V1005.2H388.781V1038H318.381V1005.2ZM454.739 1040.8C435.806 1040.8 421.006 1035.87 410.339 1026C399.672 1016 394.339 1001.47 394.339 982.4C394.339 963.333 399.672 948.867 410.339 939C421.006 929 435.806 924 454.739 924C473.539 924 487.072 928.933 495.339 938.8C503.739 948.533 507.939 960.667 507.939 975.2V989.6H443.139V990.8C443.139 995.733 444.606 999.4 447.539 1001.8C450.472 1004.07 455.339 1005.2 462.139 1005.2C470.272 1005.2 478.006 1004.6 485.339 1003.4C492.672 1002.2 499.072 1000.67 504.539 998.8V1030.8C499.872 1033.33 493.006 1035.67 483.939 1037.8C475.006 1039.8 465.272 1040.8 454.739 1040.8ZM466.339 967.6V965.2C466.339 960.667 465.339 957.4 463.339 955.4C461.472 953.4 458.606 952.4 454.739 952.4C450.872 952.4 447.939 953.467 445.939 955.6C444.072 957.6 443.139 960.8 443.139 965.2V967.6H466.339ZM599.289 924C601.956 924 604.489 924.267 606.889 924.8C609.289 925.333 611.289 926 612.889 926.8V965C607.422 962.733 601.556 961.6 595.289 961.6C586.889 961.6 580.422 963.8 575.889 968.2C571.356 972.6 569.089 979.133 569.089 987.8V1005.2H587.089V1038H514.289V1005.2H523.089V959.6H514.289V926.8H569.089V941.4C572.822 935.8 577.089 931.533 581.889 928.6C586.689 925.533 592.489 924 599.289 924ZM678.958 1040.8C660.024 1040.8 645.224 1035.87 634.558 1026C623.891 1016 618.558 1001.47 618.558 982.4C618.558 963.333 623.891 948.867 634.558 939C645.224 929 660.024 924 678.958 924C697.758 924 711.291 928.933 719.558 938.8C727.958 948.533 732.158 960.667 732.158 975.2V989.6H667.358V990.8C667.358 995.733 668.824 999.4 671.758 1001.8C674.691 1004.07 679.558 1005.2 686.358 1005.2C694.491 1005.2 702.224 1004.6 709.558 1003.4C716.891 1002.2 723.291 1000.67 728.758 998.8V1030.8C724.091 1033.33 717.224 1035.67 708.158 1037.8C699.224 1039.8 689.491 1040.8 678.958 1040.8ZM690.558 967.6V965.2C690.558 960.667 689.558 957.4 687.558 955.4C685.691 953.4 682.824 952.4 678.958 952.4C675.091 952.4 672.158 953.467 670.158 955.6C668.291 957.6 667.358 960.8 667.358 965.2V967.6H690.558ZM870.908 1005.2V1038H807.708V1005.2H816.108V972.4C816.108 968 815.174 964.8 813.308 962.8C811.441 960.667 808.641 959.6 804.908 959.6C796.908 959.6 792.908 963.867 792.908 972.4V1005.2H801.308V1038H738.108V1005.2H746.908V959.6H738.108V926.8H792.908V942.4C802.508 930.133 814.508 924 828.908 924C839.974 924 848.241 927.467 853.708 934.4C859.308 941.333 862.108 950.867 862.108 963V1005.2H870.908ZM937.166 1040.8C918.099 1040.8 903.232 1035.87 892.566 1026C881.899 1016 876.566 1001.47 876.566 982.4C876.566 963.333 881.899 948.867 892.566 939C903.232 929 918.032 924 936.966 924C946.166 924 954.966 925.267 963.366 927.8C971.766 930.333 978.299 933.2 982.966 936.4V976H948.566V972.4C948.566 968 947.632 964.8 945.766 962.8C943.899 960.667 940.966 959.6 936.966 959.6C929.232 959.6 925.366 963.867 925.366 972.4V989.6C925.366 1000 931.299 1005.2 943.166 1005.2C954.232 1005.2 967.099 1004 981.766 1001.6V1033C977.232 1035 970.832 1036.8 962.566 1038.4C954.432 1040 945.966 1040.8 937.166 1040.8ZM999.27 915.8V882.4H1040.07V915.8H999.27ZM989.67 1038V1005.2H998.47V959.6H989.67V926.8H1044.47V1005.2H1053.27V1038H989.67ZM1175.41 1005.2V1038H1122.61V1024.4C1119.68 1028.67 1115.54 1032.47 1110.21 1035.8C1105.01 1039.13 1098.61 1040.8 1091.01 1040.8C1081.01 1040.8 1073.14 1038.13 1067.41 1032.8C1061.68 1027.47 1058.81 1019.93 1058.81 1010.2C1058.81 985 1080.21 972.067 1123.01 971.4C1122.61 966.867 1120.88 963.8 1117.81 962.2C1114.74 960.467 1109.54 959.6 1102.21 959.6C1096.21 959.6 1089.74 960.267 1082.81 961.6C1076.01 962.8 1069.74 964.467 1064.01 966.6V929.8C1071.08 928.067 1078.74 926.667 1087.01 925.6C1095.28 924.533 1103.34 924 1111.21 924C1131.08 924 1145.28 927.6 1153.81 934.8C1162.34 942 1166.61 953.133 1166.61 968.2V1005.2H1175.41ZM1122.61 991.2C1116.61 991.2 1111.94 992 1108.61 993.6C1105.41 995.2 1103.81 997.867 1103.81 1001.6C1103.81 1003.87 1104.48 1005.73 1105.81 1007.2C1107.28 1008.53 1109.28 1009.2 1111.81 1009.2C1115.28 1009.2 1117.94 1007.73 1119.81 1004.8C1121.68 1001.87 1122.61 997.733 1122.61 992.4V991.2ZM1191.46 915.8V882.4H1232.26V915.8H1191.46ZM1181.86 1038V1005.2H1190.66V959.6H1181.86V926.8H1236.66V1005.2H1245.46V1038H1181.86ZM1299.6 1040.8C1282.8 1040.8 1266.6 1038.13 1251 1032.8V1003.2H1283.4V1005.2C1283.4 1011.6 1287.47 1014.8 1295.6 1014.8C1302.8 1014.8 1306.4 1012.33 1306.4 1007.4C1306.4 1004.73 1305.33 1002.73 1303.2 1001.4C1301.2 1000.07 1297.6 998.933 1292.4 998L1282.4 996.2C1261.47 992.467 1251 980.6 1251 960.6C1251 949 1255.4 940 1264.2 933.6C1273 927.2 1284.87 924 1299.8 924C1316.47 924 1330.53 926.8 1342 932.4V960.2H1311.6V958.2C1311.6 955.533 1310.67 953.533 1308.8 952.2C1307.07 950.733 1304.47 950 1301 950C1294.33 950 1291 952.133 1291 956.4C1291 958.667 1291.93 960.4 1293.8 961.6C1295.67 962.8 1299.07 963.933 1304 965L1315.4 967.2C1327.27 969.467 1335.73 973.667 1340.8 979.8C1345.87 985.933 1348.4 993.8 1348.4 1003.4C1348.4 1015.53 1344.13 1024.8 1335.6 1031.2C1327.2 1037.6 1315.2 1040.8 1299.6 1040.8Z" fill="#373737"/>
<path d="M-110 233C76 211 198.5 143.5 192 -65" stroke="#00DDA8" stroke-width="2"/>
<path d="M-84 189C60.617 171.872 155.862 119.322 150.808 -43" stroke="#0058DD" stroke-width="2"/>
<path d="M2059.32 788.156C1873.03 807.596 1749.61 873.405 1753.25 1081.98" stroke="#00DDA8" stroke-width="2"/>
<path d="M2032.71 831.794C1887.87 846.931 1791.92 898.167 1794.74 1060.54" stroke="#0058DD" stroke-width="2"/>
</g>
<defs>
<clipPath id="clip0_1_116">
<rect width="1920" height="1026" fill="white"/>
</clipPath>
</defs>
</svg>
