<svg width="1920" height="611" viewBox="0 0 1920 611" fill="none" xmlns="http://www.w3.org/2000/svg">
<rect width="1920" height="610" transform="translate(0 0.337402)" fill="#161616"/>
<path opacity="0.3" d="M723.275 601.456C699.735 601.456 681.38 595.366 668.211 583.184C655.042 570.838 648.457 552.894 648.457 529.354C648.457 505.814 655.042 487.953 668.211 475.771C681.38 463.425 699.653 457.252 723.028 457.252C734.387 457.252 745.252 458.816 755.623 461.944C765.993 465.071 774.06 468.611 779.821 472.561V521.453H737.35V517.008C737.35 511.576 736.198 507.625 733.893 505.156C731.589 502.522 727.967 501.205 723.028 501.205C713.481 501.205 708.707 506.472 708.707 517.008V538.244C708.707 551.084 716.032 557.504 730.683 557.504C744.346 557.504 760.232 556.022 778.34 553.059V591.826C772.743 594.296 764.841 596.518 754.635 598.493C744.593 600.469 734.14 601.456 723.275 601.456ZM861.683 601.456C838.307 601.456 820.035 595.366 806.865 583.184C793.696 570.838 787.111 552.894 787.111 529.354C787.111 505.814 793.696 487.953 806.865 475.771C820.035 463.425 838.307 457.252 861.683 457.252C885.388 457.252 903.743 463.507 916.747 476.018C929.752 488.365 936.254 506.143 936.254 529.354C936.254 552.894 929.67 570.838 916.5 583.184C903.331 595.366 885.059 601.456 861.683 601.456ZM861.683 557.504C866.457 557.504 869.996 556.269 872.301 553.8C874.77 551.166 876.005 547.133 876.005 541.7V517.008C876.005 511.576 874.77 507.625 872.301 505.156C869.996 502.522 866.457 501.205 861.683 501.205C856.909 501.205 853.287 502.522 850.818 505.156C848.514 507.625 847.361 511.576 847.361 517.008V541.7C847.361 547.133 848.514 551.166 850.818 553.8C853.287 556.269 856.909 557.504 861.683 557.504ZM1108.07 557.504V598H1030.05V557.504H1040.42V517.008C1040.42 511.576 1039.26 507.625 1036.96 505.156C1034.65 502.522 1031.2 501.205 1026.59 501.205C1016.71 501.205 1011.77 506.472 1011.77 517.008V557.504H1022.14V598H944.115V557.504H954.98V501.205H944.115V460.709H1011.77V479.969C1023.63 464.824 1038.44 457.252 1056.22 457.252C1069.88 457.252 1080.09 461.532 1086.84 470.092C1093.75 478.652 1097.21 490.422 1097.21 505.402V557.504H1108.07ZM1177.04 601.456C1159.59 601.456 1146.42 597.259 1137.53 588.863C1128.8 580.303 1124.44 565.982 1124.44 545.898V501.205H1113.58V460.709C1119.83 460.709 1124.52 459.145 1127.65 456.017C1130.78 452.725 1132.34 448.28 1132.34 442.683V431.572H1184.69V460.709H1218.03V501.205H1184.69V541.7C1184.69 547.133 1185.84 551.166 1188.15 553.8C1190.62 556.269 1194.24 557.504 1199.01 557.504C1205.27 557.504 1212.1 556.763 1219.51 555.281V594.049C1214.9 595.859 1208.64 597.506 1200.74 598.987C1193.01 600.633 1185.1 601.456 1177.04 601.456ZM1371.41 557.504V598H1306.22V581.209C1302.6 586.476 1297.5 591.168 1290.91 595.283C1284.49 599.399 1276.59 601.456 1267.21 601.456C1254.86 601.456 1245.15 598.164 1238.07 591.579C1230.99 584.995 1227.45 575.694 1227.45 563.677C1227.45 532.564 1253.87 516.596 1306.72 515.773C1306.22 510.176 1304.08 506.39 1300.3 504.415C1296.51 502.275 1290.09 501.205 1281.04 501.205C1273.63 501.205 1265.64 502.028 1257.08 503.674C1248.69 505.156 1240.95 507.213 1233.87 509.847V464.413C1242.6 462.273 1252.06 460.544 1262.27 459.227C1272.48 457.91 1282.43 457.252 1292.15 457.252C1316.68 457.252 1334.21 461.697 1344.74 470.586C1355.28 479.475 1360.55 493.221 1360.55 511.823V557.504H1371.41ZM1306.22 540.219C1298.81 540.219 1293.05 541.207 1288.94 543.182C1284.99 545.157 1283.01 548.45 1283.01 553.059C1283.01 555.858 1283.83 558.162 1285.48 559.973C1287.29 561.619 1289.76 562.442 1292.89 562.442C1297.17 562.442 1300.46 560.631 1302.77 557.01C1305.07 553.388 1306.22 548.285 1306.22 541.7V540.219ZM1440.36 601.456C1422.91 601.456 1409.74 597.259 1400.85 588.863C1392.13 580.303 1387.77 565.982 1387.77 545.898V501.205H1376.9V460.709C1383.16 460.709 1387.85 459.145 1390.98 456.017C1394.1 452.725 1395.67 448.28 1395.67 442.683V431.572H1448.02V460.709H1481.35V501.205H1448.02V541.7C1448.02 547.133 1449.17 551.166 1451.47 553.8C1453.94 556.269 1457.56 557.504 1462.34 557.504C1468.59 557.504 1475.42 556.763 1482.83 555.281V594.049C1478.22 595.859 1471.97 597.506 1464.07 598.987C1456.33 600.633 1448.43 601.456 1440.36 601.456ZM1564.36 601.456C1540.98 601.456 1522.71 595.366 1509.54 583.184C1496.37 570.838 1489.79 552.894 1489.79 529.354C1489.79 505.814 1496.37 487.953 1509.54 475.771C1522.71 463.425 1540.98 457.252 1564.36 457.252C1588.06 457.252 1606.42 463.507 1619.42 476.018C1632.43 488.365 1638.93 506.143 1638.93 529.354C1638.93 552.894 1632.35 570.838 1619.18 583.184C1606.01 595.366 1587.74 601.456 1564.36 601.456ZM1564.36 557.504C1569.13 557.504 1572.67 556.269 1574.98 553.8C1577.45 551.166 1578.68 547.133 1578.68 541.7V517.008C1578.68 511.576 1577.45 507.625 1574.98 505.156C1572.67 502.522 1569.13 501.205 1564.36 501.205C1559.59 501.205 1555.96 502.522 1553.49 505.156C1551.19 507.625 1550.04 511.576 1550.04 517.008V541.7C1550.04 547.133 1551.19 551.166 1553.49 553.8C1555.96 556.269 1559.59 557.504 1564.36 557.504Z" fill="#373737"/>
</svg>
