<svg width="1920" height="940" viewBox="0 0 1920 940" fill="none" xmlns="http://www.w3.org/2000/svg">
<rect width="1920" height="939.337" fill="#1A191A"/>
<path opacity="0.3" d="M152.2 873.137C135.4 873.137 119.2 870.471 103.6 865.137V835.537H136V837.537C136 843.937 140.067 847.137 148.2 847.137C155.4 847.137 159 844.671 159 839.737C159 837.071 157.933 835.071 155.8 833.737C153.8 832.404 150.2 831.271 145 830.337L135 828.537C114.067 824.804 103.6 812.937 103.6 792.937C103.6 781.337 108 772.337 116.8 765.937C125.6 759.537 137.467 756.337 152.4 756.337C169.067 756.337 183.133 759.137 194.6 764.737V792.537H164.2V790.537C164.2 787.871 163.267 785.871 161.4 784.537C159.667 783.071 157.067 782.337 153.6 782.337C146.933 782.337 143.6 784.471 143.6 788.737C143.6 791.004 144.533 792.737 146.4 793.937C148.267 795.137 151.667 796.271 156.6 797.337L168 799.537C179.867 801.804 188.333 806.004 193.4 812.137C198.467 818.271 201 826.137 201 835.737C201 847.871 196.733 857.137 188.2 863.537C179.8 869.937 167.8 873.137 152.2 873.137ZM266.911 873.137C247.978 873.137 233.178 868.204 222.511 858.337C211.844 848.337 206.511 833.804 206.511 814.737C206.511 795.671 211.844 781.204 222.511 771.337C233.178 761.337 247.978 756.337 266.911 756.337C285.711 756.337 299.244 761.271 307.511 771.137C315.911 780.871 320.111 793.004 320.111 807.537V821.937H255.311V823.137C255.311 828.071 256.778 831.737 259.711 834.137C262.644 836.404 267.511 837.537 274.311 837.537C282.444 837.537 290.178 836.937 297.511 835.737C304.844 834.537 311.244 833.004 316.711 831.137V863.137C312.044 865.671 305.178 868.004 296.111 870.137C287.178 872.137 277.444 873.137 266.911 873.137ZM278.511 799.937V797.537C278.511 793.004 277.511 789.737 275.511 787.737C273.644 785.737 270.778 784.737 266.911 784.737C263.044 784.737 260.111 785.804 258.111 787.937C256.244 789.937 255.311 793.137 255.311 797.537V799.937H278.511ZM411.461 756.337C414.128 756.337 416.661 756.604 419.061 757.137C421.461 757.671 423.461 758.337 425.061 759.137V797.337C419.594 795.071 413.728 793.937 407.461 793.937C399.061 793.937 392.594 796.137 388.061 800.537C383.528 804.937 381.261 811.471 381.261 820.137V837.537H399.261V870.337H326.461V837.537H335.261V791.937H326.461V759.137H381.261V773.737C384.994 768.137 389.261 763.871 394.061 760.937C398.861 757.871 404.661 756.337 411.461 756.337ZM463.53 870.337L438.33 791.937H429.93V759.137H491.73V791.937H483.33L493.93 831.537H495.93L506.53 791.937H498.13V759.137H556.13V791.937H547.73L523.13 870.337H463.53ZM571.403 748.137V714.737H612.203V748.137H571.403ZM561.803 870.337V837.537H570.603V791.937H561.803V759.137H616.603V837.537H625.403V870.337H561.803ZM702.144 808.337V804.737C702.144 800.337 701.21 797.137 699.344 795.137C697.477 793.004 694.544 791.937 690.544 791.937C682.81 791.937 678.944 796.204 678.944 804.737V821.937C678.944 832.337 684.877 837.537 696.744 837.537C707.81 837.537 720.677 836.337 735.344 833.937V865.337C731.477 866.937 726.41 868.471 720.144 869.937C713.877 871.404 707.21 872.337 700.144 872.737V878.137C706.144 878.137 711.01 879.737 714.744 882.937C718.477 886.137 720.344 890.804 720.344 896.937C720.344 904.137 717.81 909.671 712.744 913.537C707.81 917.537 700.944 919.537 692.144 919.537C684.544 919.537 676.344 918.337 667.544 915.937V901.737C675.677 903.604 683.144 904.537 689.944 904.537C692.21 904.537 693.877 903.937 694.944 902.737C696.144 901.537 696.744 900.004 696.744 898.137C696.744 896.271 696.144 894.737 694.944 893.537C693.877 892.337 692.21 891.737 689.944 891.737H681.144V872.737C665.01 871.137 652.477 865.471 643.544 855.737C634.61 845.871 630.144 832.204 630.144 814.737C630.144 795.671 635.477 781.204 646.144 771.337C656.81 761.337 671.61 756.337 690.544 756.337C699.744 756.337 708.544 757.604 716.944 760.137C725.344 762.671 731.877 765.537 736.544 768.737V808.337H702.144ZM802.848 873.137C783.915 873.137 769.115 868.204 758.448 858.337C747.782 848.337 742.448 833.804 742.448 814.737C742.448 795.671 747.782 781.204 758.448 771.337C769.115 761.337 783.915 756.337 802.848 756.337C822.048 756.337 836.915 761.404 847.448 771.537C857.982 781.537 863.248 795.937 863.248 814.737C863.248 833.804 857.915 848.337 847.248 858.337C836.582 868.204 821.782 873.137 802.848 873.137ZM802.848 837.537C806.715 837.537 809.582 836.537 811.448 834.537C813.448 832.404 814.448 829.137 814.448 824.737V804.737C814.448 800.337 813.448 797.137 811.448 795.137C809.582 793.004 806.715 791.937 802.848 791.937C798.982 791.937 796.048 793.004 794.048 795.137C792.182 797.137 791.248 800.337 791.248 804.737V824.737C791.248 829.137 792.182 832.404 794.048 834.537C796.048 836.537 798.982 837.537 802.848 837.537ZM918.216 873.137C901.416 873.137 885.216 870.471 869.616 865.137V835.537H902.016V837.537C902.016 843.937 906.082 847.137 914.216 847.137C921.416 847.137 925.016 844.671 925.016 839.737C925.016 837.071 923.949 835.071 921.816 833.737C919.816 832.404 916.216 831.271 911.016 830.337L901.016 828.537C880.082 824.804 869.616 812.937 869.616 792.937C869.616 781.337 874.016 772.337 882.816 765.937C891.616 759.537 903.482 756.337 918.416 756.337C935.082 756.337 949.149 759.137 960.616 764.737V792.537H930.216V790.537C930.216 787.871 929.282 785.871 927.416 784.537C925.682 783.071 923.082 782.337 919.616 782.337C912.949 782.337 909.616 784.471 909.616 788.737C909.616 791.004 910.549 792.737 912.416 793.937C914.282 795.137 917.682 796.271 922.616 797.337L934.016 799.537C945.882 801.804 954.349 806.004 959.416 812.137C964.482 818.271 967.016 826.137 967.016 835.737C967.016 847.871 962.749 857.137 954.216 863.537C945.816 869.937 933.816 873.137 918.216 873.137Z" fill="#373737"/>
</svg>
