<svg width="154" height="154" viewBox="0 0 154 154" fill="none" xmlns="http://www.w3.org/2000/svg">
<path fill-rule="evenodd" clip-rule="evenodd" d="M87.5356 116.7V36.8202C87.5356 30.3783 84.8237 28.2762 78.7209 28.2762H60.4119V37.0917H62.4465C65.837 37.0917 67.1928 38.3798 67.1928 42.3128V116.7H87.5356ZM98.3849 116.7H118.05V56.4172C118.05 50.3144 115.338 47.8732 109.235 47.8732H98.3849V116.7ZM56.3435 116.7V47.8732H45.4942C39.3913 47.8732 36.6786 50.3144 36.6786 56.4172V116.7H56.3435ZM141.105 76.5568C141.105 113.92 113.981 141.179 77.3642 141.179C40.7472 141.179 13.6233 113.92 13.6233 76.5568C13.6233 39.1939 40.7472 11.9343 77.3642 11.9343C113.981 11.9343 141.105 39.1939 141.105 76.5568ZM153.989 76.5568C153.989 32.8198 121.44 -0.000157631 77.3642 -0.000157631C33.9663 -0.000157631 0.740234 32.8198 0.740234 76.5568C0.740234 120.429 33.9663 153.249 77.3642 153.249C121.44 153.249 153.989 120.429 153.989 76.5568Z" fill="white"/>
</svg>
