<svg width="337" height="204" viewBox="0 0 337 204" fill="none" xmlns="http://www.w3.org/2000/svg">
<g clip-path="url(#clip0_164_46)">
<path d="M101.781 189.298L104.63 183.804C107.3 185.609 111.523 186.881 115.338 186.881C119.967 186.881 121.824 185.609 121.824 183.473C121.824 177.572 102.697 183.117 102.697 170.78C102.697 164.93 107.962 161.114 116.304 161.114C120.425 161.114 125.105 162.106 127.903 163.785L125.13 169.279C122.231 167.55 119.229 166.965 116.33 166.965C111.879 166.965 109.793 168.414 109.793 170.449C109.793 176.707 128.92 171.136 128.92 183.244C128.92 189.043 123.579 192.808 114.956 192.808C109.717 192.783 104.554 191.282 101.781 189.298ZM164.987 179.225H140.697C141.561 183.753 145.326 186.652 150.718 186.652C154.203 186.652 156.924 185.559 159.111 183.295L163.003 187.746C160.231 191.053 155.881 192.783 150.54 192.783C140.162 192.783 133.448 186.118 133.448 176.91C133.448 167.702 140.239 161.089 149.446 161.089C158.476 161.089 165.089 167.397 165.089 177.088C165.114 177.648 165.063 178.513 164.987 179.225ZM140.671 174.417H158.221C157.636 169.966 154.228 166.888 149.472 166.888C144.766 166.888 141.358 169.89 140.671 174.417ZM196.704 161.419H203.597V187.67C203.597 198.913 197.747 204 186.912 204C181.113 204 175.39 202.499 171.854 199.6L175.11 194.156C177.832 196.42 182.232 197.87 186.53 197.87C193.372 197.87 196.374 194.741 196.374 188.484V186.856C193.83 189.628 190.168 190.977 185.996 190.977C177.145 190.977 170.354 184.948 170.354 175.969C170.354 166.99 177.145 161.089 185.996 161.089C190.346 161.089 194.161 162.488 196.704 165.54V161.419ZM196.45 175.969C196.45 170.755 192.508 167.219 187.064 167.219C181.571 167.219 177.628 170.755 177.628 175.969C177.628 181.234 181.571 184.846 187.064 184.846C192.533 184.846 196.45 181.26 196.45 175.969ZM211.584 177.648V161.419H218.833V177.648C218.833 183.498 222.088 186.576 226.718 186.576C231.347 186.576 234.602 183.625 234.602 177.648V161.419H241.826V177.648C241.826 188.026 235.162 192.783 226.692 192.783C218.248 192.783 211.584 187.797 211.584 177.648ZM256.654 165.947C258.74 162.691 262.504 161.089 267.617 161.089V167.982C267.032 167.855 266.523 167.804 265.989 167.804C260.495 167.804 257.011 171.06 257.011 177.368V192.376H249.762V161.419H256.654V165.947ZM270.923 176.91C270.923 167.626 277.867 161.089 287.38 161.089C296.994 161.089 303.887 167.626 303.887 176.91C303.887 186.195 296.994 192.783 287.38 192.783C277.867 192.783 270.923 186.169 270.923 176.91ZM296.587 176.91C296.587 171.009 292.645 167.244 287.38 167.244C282.166 167.244 278.223 171.009 278.223 176.91C278.223 182.811 282.166 186.576 287.38 186.576C292.645 186.576 296.587 182.811 296.587 176.91ZM308.008 189.298L310.856 183.804C313.527 185.609 317.749 186.881 321.564 186.881C326.194 186.881 328.05 185.609 328.05 183.473C328.05 177.572 308.923 183.117 308.923 170.78C308.923 164.93 314.188 161.114 322.531 161.114C326.651 161.114 331.331 162.106 334.129 163.785L331.357 169.279C328.457 167.55 325.456 166.965 322.556 166.965C318.105 166.965 316.02 168.414 316.02 170.449C316.02 176.707 335.147 171.136 335.147 183.244C335.147 189.043 329.805 192.808 321.183 192.808C315.943 192.783 310.78 191.282 308.008 189.298ZM265.964 27.7766C262.657 27.7766 260.571 29.8623 260.571 33.1691V87.6793C260.571 102.407 253.526 108.41 243.148 108.41C232.364 108.41 225.522 102.61 225.522 87.6793V33.1691C225.522 29.8623 223.665 27.7766 220.13 27.7766H201.69C198.383 27.7766 196.297 29.8623 196.297 33.1691V88.9257C196.297 119.195 216.823 133.287 242.945 133.287C269.881 133.287 289.796 118.356 289.796 88.9257V33.1691C289.796 29.8623 287.939 27.7766 284.404 27.7766H265.964ZM133.092 109.453L180.782 52.0429C182.435 49.9825 183.275 48.1003 183.275 45.404V33.1691C183.275 29.8623 181.418 27.7766 177.882 27.7766H107.809C104.503 27.7766 102.417 29.8623 102.417 33.1691V44.3611C102.417 47.6678 104.503 49.7536 107.809 49.7536H151.125L103.46 107.189C101.807 109.275 100.967 111.132 100.967 113.828V126.063C100.967 129.37 102.824 131.455 106.359 131.455H179.739C183.046 131.455 185.131 129.37 185.131 126.063V114.871C185.131 111.564 183.275 109.478 179.739 109.478H133.092V109.453ZM46.4601 25.9197C24.6878 25.9197 8.53662 37.3152 5.20465 56.3925C4.59421 59.9282 6.65444 61.9885 10.1899 61.9885H24.2808C27.3839 61.9885 29.2661 60.3352 30.08 57.2319C31.9368 51.8394 36.3116 48.1003 45.2138 48.1003C55.7947 48.1003 60.3476 54.9426 60.3476 65.0918V126.037C60.3476 129.344 62.4333 131.43 65.7398 131.43H82.9338C86.2404 131.43 88.326 129.344 88.326 126.037V64.6848C88.326 43.5471 73.3957 25.9197 46.4601 25.9197ZM310.933 0C307.626 0 305.54 1.85686 305.54 5.39252V126.037C305.54 129.344 307.626 131.43 310.933 131.43H329.373C332.679 131.43 334.765 129.573 334.765 126.037V5.39252C334.765 2.08579 332.908 0 329.373 0H310.933Z" fill="white"/>
<path d="M33.183 133.083C37.9394 133.083 41.8818 132.473 45.6207 130.997C49.3597 129.548 51.0129 127.258 51.8523 123.545L53.5056 116.295C54.1414 113.802 52.8951 112.785 50.4025 113.395C47.9099 113.802 45.0103 114.006 42.3142 114.006C32.3691 114.006 28.2232 109.249 28.2232 103.017C28.2232 90.5789 46.6636 80.6333 99.9498 73.9944C103.053 73.5874 102.849 70.0518 99.9498 70.0518C35.9046 70.4587 2.12699 83.3041 2.12699 106.96C2.10156 121.891 14.1323 133.083 33.183 133.083Z" fill="white"/>
</g>
<defs>
<clipPath id="clip0_164_46">
<rect width="335.949" height="204" fill="white" transform="translate(0.649414)"/>
</clipPath>
</defs>
</svg>
