<svg width="205" height="204" viewBox="0 0 205 204" fill="none" xmlns="http://www.w3.org/2000/svg">
<g clip-path="url(#clip0_164_49)">
<path fill-rule="evenodd" clip-rule="evenodd" d="M118.812 121.643H101.887V204H91.1806V148.825H83.702V204H0.350586V0H204.351V204H118.812V121.643ZM87.5006 54.1384C77.1365 54.1384 67.2381 54.9424 57.7962 56.4408C70.5756 40.5478 89.9159 30.4109 111.557 30.4109C129.058 30.4109 145.06 37.0897 157.265 48.0352C144.485 32.7133 125.487 22.9235 104.307 22.9235C78.2871 22.9235 55.4951 37.6698 43.4051 59.4421C30.8586 62.6673 19.805 67.1579 10.7102 72.6855C19.805 68.6518 30.1646 65.4311 41.5606 63.1241C36.8397 72.7997 34.3103 83.7407 34.3103 95.2618C34.3103 117.034 43.6334 136.614 58.5998 149.862C47.8932 137.189 41.5606 120.716 41.5606 102.749C41.5606 87.1988 46.2815 72.9185 54.2258 61.1644C61.6419 60.33 69.0985 59.9076 76.5612 59.899C132.628 59.899 178.098 83.9737 178.098 113.576C178.098 127.052 168.775 139.263 153.461 148.706C175.221 138.911 189.037 124.174 189.037 107.815C189.037 78.0989 143.563 54.1384 87.5006 54.1384Z" fill="white"/>
</g>
<defs>
<clipPath id="clip0_164_49">
<rect width="204" height="204" fill="white" transform="translate(0.350586)"/>
</clipPath>
</defs>
</svg>
