<svg width="205" height="204" viewBox="0 0 205 204" fill="none" xmlns="http://www.w3.org/2000/svg">
<path fill-rule="evenodd" clip-rule="evenodd" d="M43.7051 8.99223L161.899 9.06843C180.492 9.06843 195.733 24.3856 195.657 42.9795V161.172C195.657 179.766 180.417 195.008 161.746 195.008L43.4765 194.932C24.8825 194.856 9.6416 179.691 9.6416 161.022L9.79401 42.8271C9.79401 24.2332 25.035 8.91602 43.7051 8.99223Z" fill="white"/>
<path fill-rule="evenodd" clip-rule="evenodd" d="M169.519 93.8081H156.031L150.468 104.401H159.918L169.519 93.8081ZM178.436 111.03H165.328V139.377C165.328 148.066 159.46 150.503 155.194 150.503C151.077 150.503 146.581 148.98 146.659 141.437V111.03H133.475L133.399 143.34C133.399 155.839 140.563 161.401 150.469 161.401C157.327 161.477 162.663 158.428 165.634 153.172H165.787V160.029H178.437L178.436 111.03ZM123.187 123.986C123.187 111.869 110.46 109.659 103.372 109.659C93.0846 109.659 82.4921 111.869 80.8929 126.882H93.6191C94.0001 123.986 95.2194 120.024 101.773 120.024C105.126 120.024 110.46 120.327 110.46 125.739C110.46 128.482 107.869 129.32 105.736 129.625L93.9239 131.378C85.5414 132.521 79.2926 137.474 79.2926 147.076C79.2926 157.212 87.0655 161.402 94.5335 161.402C103.526 161.402 107.793 157.286 110.689 154.316C110.994 156.983 111.222 157.669 111.985 160.029L123.264 159.955C123.264 154.543 123.188 150.581 123.188 150.503L123.187 123.986ZM110.46 142.504V136.178C109.089 137.169 106.879 138.008 101.468 138.768C96.5148 139.607 92.476 140.904 92.476 146.237C92.476 150.657 96.1338 152.106 98.6486 152.106C104.44 152.106 110.46 148.447 110.46 142.504ZM67.176 93.8081H54.0688V110.954H47.2866V120.176H53.9926V149.97C53.9926 156.296 56.0501 160.639 67.4046 160.639H69.1573C71.2138 160.639 73.3486 160.487 75.3299 160.411V150.58C74.4155 150.656 73.4248 150.809 72.5866 150.809C67.2522 150.809 67.0998 149.742 67.0998 146.77L67.176 120.176H75.4061V110.954H67.176V93.8081ZM41.1902 93.7319H27.0161L26.9399 159.955H41.114L41.1902 93.7319Z" fill="#161616"/>
</svg>
