<svg width="205" height="204" viewBox="0 0 205 204" fill="none" xmlns="http://www.w3.org/2000/svg">
<g clip-path="url(#clip0_168_103)">
<path d="M0.598633 98.9777C0.598633 71.2305 5.07993 46.7337 19.4461 28.8564C33.9246 10.8367 57.9687 0 96.7928 0C138.384 0 162.664 10.8664 176.711 28.9276C190.669 46.882 193.968 71.3076 193.968 98.9836C193.968 126.535 192.662 151.168 179.815 169.544C166.832 188.115 142.782 199.444 97.7801 199.444C56.9755 199.444 32.6831 188.198 18.4411 169.751C4.31137 151.471 0.598633 126.654 0.598633 98.9777ZM28.5979 36.241C16.23 51.6331 12.3753 73.6801 12.3753 98.9777C12.3753 124.34 15.5737 146.815 27.7288 162.551C39.7597 178.121 61.1139 187.629 97.7801 187.629C138.26 187.629 159.359 178.204 170.155 162.764C181.08 147.129 182.192 124.477 182.192 98.9836C182.192 73.6149 179.378 51.5026 167.465 36.1758C155.641 20.9735 134.269 11.8213 96.7987 11.8213C61.9711 11.8154 40.8534 20.9913 28.5979 36.241Z" fill="white"/>
<path d="M144.018 104.192C145.387 104.145 151.053 103.636 150.2 98.6187V98.5832L150.194 98.5892C149.988 97.3993 149.693 96.2266 149.311 95.0808C148.935 93.9523 148.485 92.8495 147.965 91.7795L147.977 91.7735C144.688 84.9757 141.126 81.1537 133.961 79.58L119.422 103.139L144.018 104.192ZM54.0978 104.192L78.6878 103.133L64.1495 79.5741C56.9841 81.1478 53.4221 84.9698 50.1328 91.7676L50.1446 91.7735C49.6267 92.8437 49.1792 93.9465 48.8052 95.0749C48.4234 96.2206 48.1282 97.3934 47.9221 98.5832L47.9162 98.5773L47.9103 98.6128C47.0687 103.636 52.7287 104.145 54.0978 104.192ZM99.058 102.559L117.342 69.7707C113.288 66.6647 106.058 62.5351 99.058 63.3988C92.0467 62.5351 84.8279 66.6588 80.7681 69.7707L99.058 102.559ZM89.8064 149.836V119.397L58.128 120.752C54.643 120.9 51.6974 120.947 48.1651 120.243C40.3952 118.693 28.4705 113.463 31.4339 95.8676L31.4458 95.8085V95.773C32.1074 91.8942 33.3187 88.1291 35.0433 84.5911L35.0729 84.5556C41.5035 71.2202 49.9431 65.5465 63.9421 62.6711C65.9572 60.3519 79.1857 46.064 99.058 46.5847C118.924 46.064 132.153 60.3519 134.174 62.6711C148.167 65.5465 156.607 71.2202 163.037 84.5556L163.067 84.5911C164.793 88.1288 166.007 91.8939 166.67 95.773V95.8085L166.676 95.8676C169.64 113.457 157.715 118.693 149.945 120.243C146.419 120.947 143.473 120.9 139.982 120.752L108.31 119.397V149.836H89.8064Z" fill="white"/>
</g>
<defs>
<clipPath id="clip0_168_103">
<rect width="204" height="204" fill="white" transform="translate(0.598633)"/>
</clipPath>
</defs>
</svg>
