<svg width="209" height="204" viewBox="0 0 209 204" fill="none" xmlns="http://www.w3.org/2000/svg">
<path opacity="0.997" fill-rule="evenodd" clip-rule="evenodd" d="M7.25112 0.00851126C72.1683 -0.0150866 137.086 0.00851126 202.003 0.102903C205.967 0.99962 208.233 3.4538 208.775 7.46543C208.917 70.4953 208.917 133.501 208.775 196.531C208.351 200.472 206.227 202.926 202.38 203.894C137.204 204.035 72.0268 204.035 6.82636 203.894C2.97994 202.926 0.856143 200.472 0.431385 196.531C0.289799 133.501 0.289799 70.4953 0.431385 7.46543C1.04492 3.4302 3.3103 0.952425 7.25112 0.00851126Z" fill="white"/>
<path fill-rule="evenodd" clip-rule="evenodd" d="M12.348 13.176C34.5534 12.7985 56.4992 14.9223 78.1855 19.571C96.3085 23.5119 113.558 29.8833 129.864 38.6381C139.964 44.2544 149.215 51.0742 157.568 59.0738C149.332 54.2835 140.625 50.4842 131.422 47.6761C118.066 43.7588 104.45 41.2811 90.5507 40.2192C69.6195 38.8033 48.7828 39.6764 28.064 42.8621C27.8044 42.7913 27.5449 42.7205 27.2853 42.6733C23.3445 32.3375 18.2946 22.5916 12.1592 13.4828C12.2772 13.3884 12.3244 13.294 12.348 13.176Z" fill="#161616"/>
<path fill-rule="evenodd" clip-rule="evenodd" d="M72.4986 51.2865C86.7516 50.8382 100.981 51.4045 115.14 52.962C127.906 54.3779 140.224 57.54 152.094 62.4011C160.494 66.0116 167.739 71.2267 173.803 78.0229C176.659 81.4682 178.948 85.2674 180.67 89.4206C181.166 90.5061 181.496 91.6152 181.662 92.7715C177.107 87.9812 171.774 84.3471 165.639 81.8693C156.341 78.3061 146.69 76.0879 136.755 75.1911C118.892 73.7281 101.075 74.1292 83.3064 76.371C68.1803 78.1409 53.2429 80.9254 38.4944 84.7247C36.7717 74.8372 34.4828 65.0677 31.6274 55.4398C33.5625 54.9678 35.5211 54.5902 37.5269 54.3543C49.1605 52.844 60.8178 51.8293 72.4986 51.2865Z" fill="#161616"/>
<path fill-rule="evenodd" clip-rule="evenodd" d="M119.859 85.291C131.87 84.8662 143.787 85.6213 155.633 87.5563C164.813 89.1374 173.261 92.4647 180.977 97.5854C188.764 103.107 193.555 110.541 195.325 119.885C187.938 115.355 179.939 112.452 171.349 111.131C156.884 109.243 142.419 109.172 127.906 110.942C98.3617 114.812 69.5961 121.844 41.6328 132.062C41.8452 120.924 41.3733 109.786 40.2642 98.6473C66.3632 91.4972 92.887 87.0372 119.859 85.291Z" fill="#161616"/>
<path fill-rule="evenodd" clip-rule="evenodd" d="M156.412 120.263C163.633 120.074 170.854 120.357 178.028 121.136C199.431 124.227 205.637 135.602 196.599 155.235C192.965 162.385 188.646 169.063 183.62 175.27C185.06 172.155 186.499 168.993 187.939 165.83C189.213 162.715 190.133 159.506 190.699 156.202C191.407 151.247 189.449 147.92 184.8 146.173C181.378 145.159 177.862 144.71 174.275 144.805C166.724 144.923 159.267 145.725 151.881 147.259C135.811 150.704 120.024 155.164 104.521 160.615C78.3037 169.653 52.653 180.036 27.5923 191.812C32.3354 182.467 35.8279 172.65 37.9989 162.338C38.8956 157.618 39.7215 152.922 40.453 148.179C70.6345 136.357 101.76 127.885 133.805 122.717C141.333 121.608 148.861 120.782 156.412 120.263Z" fill="#161616"/>
</svg>
