<svg width="205" height="204" viewBox="0 0 205 204" fill="none" xmlns="http://www.w3.org/2000/svg">
<path fill-rule="evenodd" clip-rule="evenodd" d="M0.23291 119.901C0.23291 166.441 37.7124 204 84.1544 204C130.393 204 168.076 166.441 168.076 119.901C168.076 73.3602 130.596 35.8013 84.1544 35.8013C37.9161 35.8013 0.23291 73.3602 0.23291 119.901Z" fill="white"/>
<path fill-rule="evenodd" clip-rule="evenodd" d="M119.596 161.054C77.6353 161.054 43.6187 126.965 43.6187 84.9153C43.6187 42.8656 77.6353 8.77686 119.596 8.77686C161.557 8.77686 195.573 42.8656 195.573 84.9153C195.573 126.965 161.557 161.054 119.596 161.054ZM119.596 154.522C157.89 154.522 189.055 123.291 189.055 84.9153C189.055 46.5399 157.89 15.3088 119.596 15.3088C81.3018 15.3088 50.1368 46.5399 50.1368 84.9153C50.1368 123.495 81.3018 154.522 119.596 154.522Z" fill="url(#paint0_linear_168_113)"/>
<path fill-rule="evenodd" clip-rule="evenodd" d="M119.597 169.627C72.9513 169.627 35.0645 131.66 35.0645 84.7116C35.0645 37.763 72.7476 0 119.597 0C166.446 0 204.13 37.9672 204.13 84.9158C204.13 131.66 166.243 169.627 119.597 169.627ZM119.597 160.442C161.354 160.442 194.963 126.557 194.963 84.7116C194.963 42.8661 161.15 8.98146 119.393 8.98146C77.6363 8.98146 44.0269 42.8661 44.0269 84.7116C44.0269 126.557 77.84 160.442 119.597 160.442Z" fill="url(#paint1_linear_168_113)"/>
<defs>
<linearGradient id="paint0_linear_168_113" x1="119.533" y1="8.62328" x2="119.533" y2="157.868" gradientUnits="userSpaceOnUse">
<stop stop-color="#343434"/>
<stop offset="0.3579" stop-color="#EEEEEE" stop-opacity="0.933333"/>
<stop offset="0.5141" stop-color="white"/>
<stop offset="0.8542" stop-color="#EEEEEE" stop-opacity="0.933333"/>
<stop offset="1" stop-color="#343434"/>
</linearGradient>
<linearGradient id="paint1_linear_168_113" x1="119.538" y1="167.407" x2="119.538" y2="2.24597" gradientUnits="userSpaceOnUse">
<stop stop-color="white"/>
<stop offset="0.1392" stop-color="#EEEEEE"/>
<stop offset="0.454" stop-color="#333333"/>
<stop offset="0.5635" stop-color="white"/>
<stop offset="1" stop-color="#EEEEEE" stop-opacity="0.933333"/>
</linearGradient>
</defs>
</svg>
