<svg width="205" height="204" viewBox="0 0 205 204" fill="none" xmlns="http://www.w3.org/2000/svg">
<g clip-path="url(#clip0_167_83)">
<path fill-rule="evenodd" clip-rule="evenodd" d="M101.889 0C45.5566 0 -0.11084 45.6661 -0.11084 101.997C-0.11084 125.256 7.67749 146.688 20.7818 163.846L105.578 52.4157L96.4615 52.4308H87.3932C77.7091 52.4308 68.6378 53.101 62.0992 54.3839C58.1266 55.1627 54.5826 56.6056 51.7027 58.6221C48.3157 60.9917 44.0804 66.0329 41.3213 70.9744C41.0013 71.5479 40.5394 72.4233 39.9417 73.5976L34.9759 72.5048L43.2895 40.4861H149.501L65.1119 153.323C70.6 152.84 72.7855 152.731 77.2291 152.734C80.6554 152.734 85.8506 152.943 92.8118 153.359L107.806 154.25C113.218 154.573 117.783 154.739 121.242 154.739C128.988 154.739 134.024 154.138 139.001 152.62C142.892 151.432 146.575 149.65 149.92 147.337C155.834 143.256 161.606 136.678 165.05 130.092C165.397 129.427 165.941 128.419 166.584 127.064L171.076 128.226C169.63 133.813 168.836 135.945 166.602 140.947C162.068 151.08 156.951 157.863 149.911 163.073C142.681 168.419 134.67 171.055 125.206 171.199L123.766 171.208C116.756 171.208 111.326 170.623 94.5446 168.054C77.4615 165.434 68.7767 164.549 60.1914 164.549C54.4407 164.549 49.0975 164.972 43.5763 165.865C36.2468 167.052 33.379 167.906 26.7227 170.943C45.3664 191.261 72.1395 204 101.889 204C158.225 204 203.889 158.334 203.889 102.003C203.889 45.6661 158.225 0 101.889 0Z" fill="white"/>
</g>
<defs>
<clipPath id="clip0_167_83">
<rect width="204" height="204" fill="white" transform="translate(0.350586)"/>
</clipPath>
</defs>
</svg>
